<svg width="51" height="52" viewBox="0 0 51 52" fill="none" xmlns="http://www.w3.org/2000/svg">
<rect y="0.64624" width="50.4667" height="50.4667" rx="25.2334" fill="white"/>
<g clip-path="url(#clip0)">
<path d="M35.6743 18.4098C33.8462 18.4366 32.3442 19.9279 32.3068 21.756C32.2801 23.0549 32.9749 24.1935 34.0173 24.7921V30.811C34.0173 33.8739 31.3339 36.3701 28.0305 36.3701C24.8233 36.3701 22.1934 34.0128 22.0491 31.0676C25.9405 30.2658 28.8804 26.8127 28.8804 22.6861V14.3795C28.8804 13.7701 28.4475 13.2409 27.8488 13.1233L24.4866 12.4498C23.7917 12.3108 23.1182 12.7598 22.9792 13.4547L22.8081 14.2939C22.6692 14.9888 23.1182 15.6623 23.8131 15.8013L25.4541 16.1274V22.6166C25.4541 25.4443 23.1983 27.7855 20.3707 27.8123C17.5163 27.839 15.1911 25.5298 15.1911 22.6807V16.1327L16.8321 15.8067C17.527 15.6677 17.976 14.9942 17.837 14.2993L17.6713 13.4601C17.5323 12.7652 16.8588 12.3162 16.1639 12.4551L12.807 13.118C12.2084 13.2409 11.7754 13.7647 11.7754 14.3795V22.6861C11.7754 26.818 14.7207 30.2765 18.6228 31.0676C18.7617 35.8997 22.9257 39.7911 28.0252 39.7911C33.2101 39.7911 37.4329 35.7608 37.4329 30.811V24.7921C38.4539 24.1988 39.1435 23.0977 39.1435 21.8308C39.1435 19.9226 37.5826 18.3831 35.6743 18.4098ZM35.7224 22.6861C35.2521 22.6861 34.8672 22.3012 34.8672 21.8308C34.8672 21.3605 35.2521 20.9756 35.7224 20.9756C36.1928 20.9756 36.5777 21.3605 36.5777 21.8308C36.5777 22.3012 36.1928 22.6861 35.7224 22.6861Z" fill="#5BC0BE"/>
</g>
<defs>
<clipPath id="clip0">
<rect width="27.3681" height="27.3681" fill="white" transform="translate(11.7755 12.4218)"/>
</clipPath>
</defs>
</svg>
