<svg width="358" height="242" viewBox="0 0 358 242" fill="none" xmlns="http://www.w3.org/2000/svg">
<g clip-path="url(#clip0)">
<path d="M109.529 112.228H63.4656V163.735H109.529V112.228Z" fill="#CCCCCC"/>
<path d="M40.0156 241.206H16.565L14.0525 221.105H42.5281L40.0156 241.206Z" fill="#E6E6E6"/>
<path d="M87.1047 226.646L86.3134 237.465C86.2776 237.955 86.3469 238.446 86.5166 238.907C86.6864 239.368 86.9527 239.787 87.2978 240.136C87.6428 240.486 88.0585 240.757 88.5171 240.933C88.9756 241.108 89.4664 241.184 89.9565 241.154L95.5135 240.817C95.7709 240.802 96.0218 240.729 96.2482 240.606C96.4747 240.482 96.6711 240.31 96.8237 240.102C96.9762 239.894 97.081 239.655 97.1307 239.402C97.1804 239.149 97.1737 238.888 97.1111 238.638L94.0266 226.3L87.1047 226.646Z" fill="#E6E6E6"/>
<path d="M133.585 233.044C140.125 234.574 144.797 236.748 147.866 239.691C148.959 240.731 150.389 241.344 151.896 241.419C153.821 241.52 155.395 241.304 156.578 240.776H156.578C156.881 240.642 157.143 240.43 157.336 240.161C157.529 239.892 157.647 239.577 157.677 239.247C157.713 238.912 157.659 238.574 157.519 238.267C157.38 237.96 157.162 237.696 156.886 237.502L141.376 226.466L134.787 229.102L133.25 230.639C133.084 230.805 132.958 231.008 132.884 231.231C132.809 231.454 132.787 231.691 132.819 231.924C132.852 232.158 132.938 232.38 133.071 232.574C133.204 232.768 133.38 232.929 133.585 233.044H133.585Z" fill="#E6E6E6"/>
<path d="M113.458 56.4046L69.123 55.9941C69.2345 49.5366 70.737 43.1954 74.0211 37.521C76.1781 33.7943 76.1315 29.7385 75.6117 26.3216C74.8095 21.0485 76.6748 15.6535 80.8198 12.2968C83.9874 9.72715 87.9853 8.40439 92.0604 8.57766L92.9213 8.61353C95.7255 8.73006 98.4555 9.54921 100.861 10.9958C103.266 12.4423 105.269 14.4699 106.686 16.8923C108.127 19.4784 108.708 22.4555 108.345 25.3935C108.064 28.1578 108.736 30.9503 110.309 33.7694C113.023 39.9598 113.61 47.8811 113.458 56.4046Z" fill="#2F2E41"/>
<path d="M143.121 227.042L134.42 229.311L92.0483 137.002L94.6966 227.042H85.9953C76.6973 184.68 59.9105 135.791 67.4577 120.356L112.478 117.708L143.121 227.042Z" fill="#5BC0BE"/>
<path d="M91.6702 40.9091C98.1474 40.9091 103.398 35.6584 103.398 29.1813C103.398 22.7042 98.1474 17.4534 91.6702 17.4534C85.1931 17.4534 79.9424 22.7042 79.9424 29.1813C79.9424 35.6584 85.1931 40.9091 91.6702 40.9091Z" fill="#FFB9B9"/>
<path d="M101.885 50.7454L82.5906 49.6105C84.4814 45.2705 85.2368 41.0914 84.4822 37.126H98.8583C98.8257 40.1706 100.341 45.4373 101.885 50.7454Z" fill="#FFB9B9"/>
<path d="M113.991 121.112L71.6196 124.139L75.9701 49.0431L83.3474 46.9622L91.6703 48.8538L99.9931 44.6921L105.29 46.5841L113.991 121.112Z" fill="#5BC0BE"/>
<path d="M78.8075 175.212L49.8662 168.591C58.472 140.054 73.9757 74.7678 68.9713 51.502L84.104 44.6923L78.8075 175.212Z" fill="#E6E6E6"/>
<path d="M64.8096 92.7387L53.8384 85.929L63.1949 58.5256C64.2384 55.6979 66.2372 53.3237 68.8457 51.8135L71.9976 49.9888L70.106 77.606L64.8096 92.7387Z" fill="#E6E6E6"/>
<path d="M139.149 168.97C130.015 174.255 107.182 177.201 97.156 173.51C96.4182 147.725 94.9715 74.7916 99.615 43.9357L116.261 50.7454L114.748 71.1746C106.79 88.6506 129.898 149.52 139.149 168.97Z" fill="#E6E6E6"/>
<path d="M137.825 89.334L127.611 85.9291L113.991 70.4178L116.261 50.7453L138.96 82.5241L137.825 89.334Z" fill="#E6E6E6"/>
<path d="M105.813 104.059C105.98 104.793 106.431 105.43 107.067 105.831C107.703 106.233 108.473 106.365 109.207 106.2L117.878 104.236L116.624 98.7018L107.953 100.665C107.22 100.831 106.582 101.282 106.18 101.919C105.779 102.555 105.647 103.325 105.813 104.059Z" fill="#FFB9B9"/>
<path d="M101.885 26.1548C95.3707 23.4762 88.9371 23.2823 82.5906 25.7764L79.9424 16.3185H104.155L101.885 26.1548Z" fill="#2F2E41"/>
<path d="M113.613 97.6569L118.531 106.736C126.803 104.429 133.972 97.1558 140.851 88.5772L138.96 82.5241L127.232 85.5507L113.613 97.6569Z" fill="#E6E6E6"/>
<path d="M110.019 78.9301H108.505C108.505 57.527 104.099 42.6116 99.8041 42.6116L99.4258 41.0983C103.277 41.0983 105.733 47.306 107.114 52.5138C108.987 59.5738 110.019 68.9553 110.019 78.9301Z" fill="#3F3D56"/>
<path d="M75.2132 73.6337H73.7C73.7 54.0319 78.1372 41.8549 84.6712 41.8549L84.2929 43.3682C79.7734 43.3682 75.2132 52.7266 75.2132 73.6337Z" fill="#3F3D56"/>
<path d="M109.262 83.0916C111.351 83.0916 113.045 81.3978 113.045 79.3084C113.045 77.219 111.351 75.5252 109.262 75.5252C107.173 75.5252 105.479 77.219 105.479 79.3084C105.479 81.3978 107.173 83.0916 109.262 83.0916Z" fill="#3F3D56"/>
<path d="M69.1605 82.7133H67.6472C67.6472 77.2895 70.702 72.877 74.4569 72.877V74.3903C71.5364 74.3903 69.1605 78.124 69.1605 82.7133Z" fill="#3F3D56"/>
<path d="M81.2667 82.7133H79.7535C79.7535 78.124 77.3775 74.3903 74.457 74.3903V72.877C78.2119 72.877 81.2667 77.2896 81.2667 82.7133Z" fill="#3F3D56"/>
<path d="M80.5099 84.6048C81.3456 84.6048 82.0231 83.9273 82.0231 83.0916C82.0231 82.2558 81.3456 81.5783 80.5099 81.5783C79.6741 81.5783 78.9966 82.2558 78.9966 83.0916C78.9966 83.9273 79.6741 84.6048 80.5099 84.6048Z" fill="#3F3D56"/>
<path d="M68.4039 84.6048C69.2397 84.6048 69.9172 83.9273 69.9172 83.0916C69.9172 82.2558 69.2397 81.5783 68.4039 81.5783C67.5681 81.5783 66.8906 82.2558 66.8906 83.0916C66.8906 83.9273 67.5681 84.6048 68.4039 84.6048Z" fill="#3F3D56"/>
<path d="M49.4878 69.1762L58.9296 70.8621L80.5099 101.547L69.0451 98.8495L49.4878 69.1762Z" fill="#5BC0BE"/>
<path d="M47.8129 68.8005C47.6691 68.8027 47.5284 68.8435 47.4057 68.9186C47.283 68.9937 47.1827 69.1005 47.1154 69.2276C47.048 69.3548 47.0161 69.4977 47.0229 69.6414C47.0297 69.7852 47.075 69.9244 47.154 70.0446L67.3262 100.651C67.4388 100.822 67.6127 100.943 67.8121 100.99L77.1976 103.198C77.3558 103.236 77.5217 103.224 77.6731 103.165C77.8245 103.106 77.9543 103.002 78.0454 102.867C78.1364 102.732 78.1844 102.573 78.1829 102.411C78.1814 102.248 78.1305 102.09 78.037 101.957L55.8891 70.4654C55.8291 70.3797 55.7527 70.3065 55.6643 70.2503C55.576 70.194 55.4775 70.1557 55.3743 70.1376L47.9642 68.8142C47.9143 68.8052 47.8637 68.8006 47.8129 68.8005Z" fill="#3F3D56"/>
<path d="M60.3967 90.6836L60.9574 96.3307L69.8042 95.4525C70.5531 95.3782 71.2417 95.0094 71.7187 94.4273C72.1957 93.8453 72.4219 93.0976 72.3475 92.3487C72.2732 91.5999 71.9045 90.9112 71.3224 90.4343C70.7403 89.9573 69.9926 89.7311 69.2438 89.8054L60.3967 90.6836Z" fill="#FFB9B9"/>
<path d="M52.7039 90.0295C52.7167 91.955 53.49 93.7974 54.8554 95.1553C56.2207 96.5131 58.0674 97.2763 59.9929 97.2785H61.4476L62.5067 88.4529L53.738 85.2961L52.7039 90.0295Z" fill="#E6E6E6"/>
<path d="M357.854 0H185.325V90.8708H357.854V0Z" fill="#E6E6E6"/>
<path d="M190.35 85.8457H352.829V5.02509H190.35V85.8457Z" fill="white"/>
<path d="M260.701 16.7504H202.913V74.5392H260.701V16.7504Z" fill="#3F3D56"/>
<path d="M246.882 43.1322C247.808 43.1322 248.557 42.3823 248.557 41.4572C248.557 40.5321 247.808 39.7822 246.882 39.7822C245.957 39.7822 245.207 40.5321 245.207 41.4572C245.207 42.3823 245.957 43.1322 246.882 43.1322Z" fill="#5BC0BE"/>
<path d="M240.601 37.2696C241.526 37.2696 242.276 36.5197 242.276 35.5946C242.276 34.6695 241.526 33.9196 240.601 33.9196C239.676 33.9196 238.926 34.6695 238.926 35.5946C238.926 36.5197 239.676 37.2696 240.601 37.2696Z" fill="#5BC0BE"/>
<path d="M239.764 41.4572C239.147 41.4573 238.543 41.6285 238.018 41.9518C237.556 41.2567 237.013 40.619 236.4 40.0523C236.407 39.963 236.413 39.8734 236.413 39.7822C236.414 39.1249 236.221 38.482 235.858 37.9336C235.496 37.3853 234.98 36.9558 234.375 36.6988C233.77 36.4417 233.103 36.3684 232.457 36.488C231.81 36.6076 231.213 36.9149 230.741 37.3714C229.844 37.2441 228.934 37.2362 228.034 37.3478C228.035 37.3216 228.038 37.296 228.038 37.2696C228.039 36.7089 227.899 36.1569 227.631 35.6644C227.363 35.1718 226.976 34.7544 226.504 34.4504C226.033 34.1464 225.493 33.9655 224.934 33.9244C224.375 33.8832 223.814 33.9831 223.304 34.2149C222.793 34.4466 222.349 34.8028 222.012 35.2508C221.674 35.6989 221.455 36.2244 221.374 36.7792C221.292 37.334 221.351 37.9003 221.546 38.4263C221.74 38.9523 222.063 39.4211 222.486 39.7898C221.925 40.2702 221.416 40.8083 220.968 41.3951C220.555 41.051 220.064 40.8116 219.539 40.697C219.013 40.5825 218.468 40.5962 217.948 40.737C217.429 40.8779 216.952 41.1417 216.556 41.5061C216.16 41.8706 215.858 42.325 215.675 42.8309C215.492 43.3368 215.434 43.8793 215.505 44.4125C215.576 44.9458 215.774 45.454 216.083 45.8944C216.392 46.3347 216.803 46.6941 217.28 46.9423C217.758 47.1904 218.288 47.3199 218.826 47.3198L218.836 47.3193C218.831 47.4586 218.826 47.598 218.826 47.7386C218.826 48.5815 218.927 49.4213 219.129 50.2399C218.133 50.6145 217.249 51.236 216.559 52.0459C215.87 52.8559 215.397 53.8278 215.186 54.8704C214.975 55.913 215.032 56.9922 215.352 58.0067C215.673 59.0211 216.245 59.9375 217.017 60.67C217.788 61.4024 218.733 61.9268 219.763 62.194C220.793 62.4611 221.873 62.4623 222.904 62.1974C223.934 61.9324 224.88 61.4101 225.653 60.6793C226.426 59.9486 227.001 59.0334 227.323 58.0197C229.654 58.4675 232.067 58.1095 234.167 57.0045C234.381 57.5093 234.716 57.9537 235.143 58.2988C235.569 58.6439 236.073 58.8791 236.612 58.9837C237.15 59.0882 237.706 59.0591 238.23 58.8987C238.755 58.7383 239.232 58.4516 239.62 58.0638C240.008 57.676 240.294 57.1989 240.455 56.6744C240.615 56.15 240.644 55.5941 240.54 55.0557C240.435 54.5173 240.2 54.0129 239.855 53.5866C239.51 53.1603 239.065 52.8253 238.56 52.6108C239.286 51.234 239.693 49.712 239.753 48.1568L239.764 48.1574C240.652 48.1574 241.504 47.8044 242.132 47.1762C242.761 46.5479 243.114 45.6958 243.114 44.8073C243.114 43.9188 242.761 43.0667 242.132 42.4384C241.504 41.8102 240.652 41.4572 239.764 41.4572V41.4572Z" fill="#5BC0BE"/>
<path d="M238.926 15.4941H222.176V18.0066H238.926V15.4941Z" fill="#E6E6E6"/>
<path d="M334.403 16.7504H276.615V74.5392H334.403V16.7504Z" fill="#3F3D56"/>
<path d="M316.48 55.9463C316.897 55.9463 317.234 55.6088 317.234 55.1925C317.234 54.7762 316.897 54.4388 316.48 54.4388C316.064 54.4388 315.727 54.7762 315.727 55.1925C315.727 55.6088 316.064 55.9463 316.48 55.9463Z" fill="#5BC0BE"/>
<path d="M313.654 53.3081C314.07 53.3081 314.408 52.9706 314.408 52.5543C314.408 52.138 314.07 51.8006 313.654 51.8006C313.237 51.8006 312.9 52.138 312.9 52.5543C312.9 52.9706 313.237 53.3081 313.654 53.3081Z" fill="#5BC0BE"/>
<path d="M313.277 55.1925C312.999 55.1926 312.728 55.2696 312.491 55.4151C312.283 55.1023 312.039 54.8154 311.763 54.5603C311.766 54.5201 311.769 54.4798 311.769 54.4388C311.769 54.143 311.683 53.8537 311.519 53.6069C311.356 53.3602 311.124 53.1669 310.852 53.0512C310.58 52.9355 310.28 52.9026 309.989 52.9564C309.698 53.0102 309.429 53.1485 309.216 53.3539C308.813 53.2966 308.403 53.2931 307.999 53.3433C307.999 53.3315 308 53.32 308 53.3081C308.001 53.0558 307.938 52.8074 307.817 52.5858C307.697 52.3641 307.522 52.1763 307.31 52.0395C307.098 51.9027 306.855 51.8213 306.604 51.8028C306.352 51.7843 306.1 51.8292 305.87 51.9335C305.64 52.0378 305.44 52.1981 305.288 52.3997C305.137 52.6013 305.038 52.8378 305.001 53.0874C304.965 53.3371 304.991 53.5919 305.079 53.8286C305.166 54.0653 305.312 54.2763 305.502 54.4422C305.249 54.6584 305.02 54.9005 304.819 55.1646C304.633 55.0098 304.412 54.902 304.176 54.8505C303.939 54.7989 303.694 54.8051 303.46 54.8685C303.226 54.9318 303.011 55.0506 302.833 55.2146C302.655 55.3786 302.519 55.583 302.437 55.8107C302.355 56.0383 302.328 56.2825 302.36 56.5224C302.392 56.7624 302.482 56.9911 302.621 57.1893C302.76 57.3874 302.945 57.5492 303.159 57.6608C303.374 57.7725 303.613 57.8307 303.855 57.8307L303.859 57.8305C303.857 57.8932 303.855 57.9559 303.855 58.0192C303.855 58.3985 303.901 58.7764 303.991 59.1447C303.543 59.3133 303.145 59.593 302.835 59.9575C302.524 60.3219 302.312 60.7593 302.217 61.2285C302.122 61.6977 302.148 62.1833 302.292 62.6398C302.436 63.0963 302.694 63.5087 303.041 63.8383C303.388 64.1679 303.813 64.4038 304.277 64.5241C304.74 64.6443 305.226 64.6448 305.69 64.5256C306.153 64.4064 306.579 64.1713 306.927 63.8425C307.275 63.5136 307.534 63.1018 307.679 62.6456C308.727 62.8472 309.813 62.6861 310.758 62.1888C310.855 62.416 311.005 62.616 311.197 62.7713C311.389 62.9265 311.616 63.0324 311.858 63.0794C312.101 63.1265 312.351 63.1134 312.587 63.0412C312.823 62.969 313.038 62.84 313.212 62.6655C313.387 62.491 313.516 62.2763 313.588 62.0403C313.66 61.8043 313.673 61.5541 313.626 61.3119C313.579 61.0696 313.473 60.8426 313.318 60.6508C313.163 60.4589 312.963 60.3081 312.735 60.2117C313.062 59.5921 313.245 58.9072 313.272 58.2074L313.277 58.2076C313.677 58.2076 314.06 58.0488 314.343 57.7661C314.625 57.4834 314.784 57.0999 314.784 56.7001C314.784 56.3003 314.625 55.9168 314.343 55.6341C314.06 55.3514 313.677 55.1925 313.277 55.1925V55.1925Z" fill="#5BC0BE"/>
<path d="M322.394 41.6422C322.81 41.6422 323.148 41.3047 323.148 40.8884C323.148 40.4721 322.81 40.1346 322.394 40.1346C321.978 40.1346 321.64 40.4721 321.64 40.8884C321.64 41.3047 321.978 41.6422 322.394 41.6422Z" fill="#5BC0BE"/>
<path d="M324.167 38.2062C324.583 38.2062 324.921 37.8687 324.921 37.4524C324.921 37.0361 324.583 36.6987 324.167 36.6987C323.751 36.6987 323.413 37.0361 323.413 37.4524C323.413 37.8687 323.751 38.2062 324.167 38.2062Z" fill="#5BC0BE"/>
<path d="M321.526 37.8049C321.45 37.5379 321.303 37.2971 321.099 37.1092C321.343 36.8242 321.553 36.5111 321.724 36.1765C321.763 36.1687 321.803 36.1606 321.843 36.1495C322.127 36.0695 322.382 35.9074 322.576 35.6836C322.769 35.4597 322.892 35.1838 322.929 34.8904C322.967 34.597 322.917 34.2991 322.787 34.0337C322.656 33.7683 322.45 33.5473 322.195 33.3982C322.14 32.9941 322.033 32.5989 321.875 32.2231C321.886 32.2201 321.898 32.2185 321.909 32.2152C322.152 32.1471 322.374 32.0191 322.555 31.843C322.736 31.6668 322.869 31.4481 322.943 31.207C323.017 30.9658 323.03 30.7098 322.98 30.4626C322.929 30.2153 322.818 29.9847 322.655 29.7918C322.492 29.5989 322.284 29.4499 322.048 29.3585C321.813 29.2671 321.559 29.2362 321.309 29.2686C321.058 29.301 320.82 29.3957 320.616 29.5441C320.412 29.6924 320.248 29.8896 320.14 30.1176C319.864 29.9333 319.569 29.7786 319.26 29.656C319.358 29.4349 319.402 29.1933 319.388 28.9517C319.373 28.71 319.301 28.4754 319.177 28.2677C319.052 28.06 318.88 27.8853 318.673 27.7584C318.467 27.6315 318.234 27.556 317.992 27.5385C317.751 27.521 317.509 27.5619 317.286 27.6577C317.064 27.7535 316.868 27.9015 316.715 28.089C316.562 28.2766 316.456 28.4983 316.407 28.7353C316.358 28.9723 316.367 29.2177 316.432 29.4507L316.434 29.4552C316.373 29.4698 316.312 29.4846 316.251 29.5018C315.886 29.6047 315.534 29.7512 315.204 29.9381C314.921 29.5526 314.544 29.2454 314.109 29.0455C313.674 28.8456 313.195 28.7595 312.718 28.7952C312.24 28.831 311.78 28.9874 311.379 29.2499C310.979 29.5123 310.652 29.8722 310.429 30.2957C310.206 30.7192 310.094 31.1925 310.104 31.6711C310.114 32.1497 310.245 32.6179 310.485 33.0319C310.726 33.4458 311.067 33.7919 311.478 34.0376C311.889 34.2833 312.356 34.4206 312.834 34.4367C312.924 35.5007 313.374 36.5023 314.109 37.2771C313.916 37.4316 313.764 37.6309 313.667 37.8576C313.57 38.0844 313.529 38.3316 313.55 38.5775C313.57 38.8235 313.65 39.0607 313.784 39.2683C313.917 39.4759 314.1 39.6476 314.315 39.7683C314.53 39.889 314.772 39.9549 315.019 39.9604C315.265 39.9659 315.51 39.9108 315.73 39.7998C315.951 39.6888 316.14 39.5254 316.283 39.3239C316.425 39.1225 316.516 38.8891 316.548 38.6443C317.233 38.7906 317.942 38.7814 318.622 38.6175L318.623 38.6222C318.677 38.8128 318.768 38.9911 318.89 39.1468C319.013 39.3024 319.165 39.4324 319.337 39.5294C319.51 39.6263 319.7 39.6882 319.897 39.7116C320.094 39.735 320.293 39.7194 320.484 39.6657C320.674 39.612 320.852 39.5213 321.008 39.3987C321.164 39.2761 321.293 39.124 321.39 38.9512C321.487 38.7784 321.549 38.5882 321.572 38.3915C321.595 38.1948 321.579 37.9955 321.526 37.8049V37.8049Z" fill="#5BC0BE"/>
<path d="M293.2 31.3992C293.616 31.3992 293.953 31.0618 293.953 30.6455C293.953 30.2292 293.616 29.8917 293.2 29.8917C292.783 29.8917 292.446 30.2292 292.446 30.6455C292.446 31.0618 292.783 31.3992 293.2 31.3992Z" fill="#5BC0BE"/>
<path d="M289.345 31.708C289.762 31.708 290.099 31.3706 290.099 30.9543C290.099 30.538 289.762 30.2005 289.345 30.2005C288.929 30.2005 288.592 30.538 288.592 30.9543C288.592 31.3706 288.929 31.708 289.345 31.708Z" fill="#5BC0BE"/>
<path d="M291.039 33.0113C290.853 33.2162 290.726 33.4689 290.674 33.7414C290.303 33.6841 289.926 33.6712 289.552 33.703C289.524 33.6735 289.497 33.6441 289.466 33.6165C289.248 33.4169 288.976 33.286 288.684 33.2401C288.391 33.1942 288.092 33.2353 287.823 33.3583C287.554 33.4814 287.327 33.6809 287.171 33.932C287.015 34.1831 286.936 34.4746 286.944 34.7703C286.63 35.0298 286.351 35.3299 286.115 35.6626C286.107 35.6544 286.099 35.6455 286.09 35.6375C285.904 35.4671 285.678 35.3462 285.433 35.2859C285.188 35.2255 284.932 35.2275 284.688 35.2919C284.444 35.3563 284.22 35.4808 284.037 35.6542C283.853 35.8276 283.716 36.0442 283.639 36.2842C283.561 36.5242 283.544 36.7799 283.591 37.0279C283.637 37.2759 283.746 37.5082 283.905 37.7036C284.065 37.899 284.271 38.0512 284.505 38.1462C284.739 38.2412 284.992 38.276 285.243 38.2474C285.233 38.5796 285.257 38.9119 285.316 39.2389C285.076 39.2719 284.848 39.3622 284.651 39.5021C284.453 39.6421 284.292 39.8275 284.181 40.0428C284.071 40.2581 284.013 40.4968 284.014 40.7389C284.016 40.981 284.075 41.2192 284.187 41.4335C284.3 41.6478 284.463 41.8318 284.661 41.97C284.86 42.1082 285.089 42.1964 285.329 42.2273C285.57 42.2582 285.814 42.2308 286.041 42.1475C286.268 42.0641 286.472 41.9273 286.635 41.7485L286.638 41.7448C286.683 41.7889 286.728 41.8329 286.774 41.8755C287.055 42.1312 287.364 42.3522 287.698 42.5337C287.52 42.9783 287.458 43.4607 287.518 43.9356C287.578 44.4105 287.758 44.8624 288.04 45.2489C288.323 45.6354 288.699 45.9438 289.133 46.1452C289.567 46.3465 290.046 46.4342 290.523 46.4001C291.001 46.3659 291.462 46.211 291.863 45.9498C292.264 45.6887 292.592 45.3299 292.817 44.9071C293.041 44.4843 293.155 44.0114 293.146 43.5328C293.138 43.0542 293.008 42.5855 292.769 42.1708C293.625 41.5322 294.238 40.6216 294.508 39.5884C294.741 39.6703 294.99 39.6938 295.234 39.6568C295.479 39.6199 295.71 39.5236 295.908 39.3764C296.106 39.2292 296.265 39.0356 296.371 38.8127C296.477 38.5897 296.526 38.3442 296.515 38.0976C296.504 37.8511 296.432 37.611 296.306 37.3986C296.181 37.1862 296.005 37.0079 295.794 36.8793C295.584 36.7507 295.345 36.6758 295.098 36.6611C294.852 36.6465 294.606 36.6925 294.381 36.7952C294.144 36.1364 293.762 35.5392 293.263 35.0475L293.266 35.0442C293.4 34.898 293.504 34.7269 293.571 34.5407C293.639 34.3544 293.669 34.1567 293.66 33.9587C293.651 33.7608 293.604 33.5665 293.52 33.387C293.436 33.2076 293.317 33.0464 293.171 32.9128C293.024 32.7792 292.853 32.6758 292.667 32.6084C292.48 32.5411 292.283 32.5111 292.085 32.5203C291.887 32.5294 291.693 32.5775 291.513 32.6617C291.334 32.746 291.173 32.8648 291.039 33.0113Z" fill="#5BC0BE"/>
<path d="M312.628 15.4941H295.877V18.0066H312.628V15.4941Z" fill="#E6E6E6"/>
<path d="M10.5429 213.669C16.5813 221.756 29.1158 222.607 29.1158 222.607C29.1158 222.607 31.8601 210.347 25.8217 202.26C19.7834 194.174 7.24893 193.323 7.24893 193.323C7.24893 193.323 4.50457 205.582 10.5429 213.669Z" fill="#E6E6E6"/>
<path d="M41.3034 216.709C37.3189 222.045 29.0478 222.607 29.0478 222.607C29.0478 222.607 27.2369 214.517 31.2214 209.181C35.206 203.845 43.4771 203.283 43.4771 203.283C43.4771 203.283 45.288 211.373 41.3034 216.709Z" fill="#E6E6E6"/>
<path d="M217.569 241.062H0V242H217.569V241.062Z" fill="#3F3D56"/>
</g>
<defs>
<clipPath id="clip0">
<rect width="357.854" height="242" fill="white"/>
</clipPath>
</defs>
</svg>
