<svg width="351" height="80" viewBox="0 0 351 80" fill="none" xmlns="http://www.w3.org/2000/svg">
<rect y="4.2403" width="71.0241" height="71.0241" rx="35.5121" fill="white"/>
<g clip-path="url(#clip0)">
<path d="M50.2063 29.2388C47.6336 29.2764 45.5197 31.3752 45.467 33.948C45.4294 35.776 46.4074 37.3783 47.8743 38.2209V46.6915C47.8743 51.002 44.0979 54.5151 39.4488 54.5151C34.9352 54.5151 31.234 51.1976 31.0309 47.0526C36.5075 45.9242 40.645 41.0645 40.645 35.2569V23.5666C40.645 22.7091 40.0356 21.9643 39.1931 21.7988L34.4613 20.8509C33.4833 20.6554 32.5355 21.2873 32.3399 22.2652L32.0991 23.4463C31.9036 24.4242 32.5355 25.3721 33.5134 25.5677L35.8229 26.0266V35.1591C35.8229 39.1387 32.6483 42.4336 28.6688 42.4712C24.6517 42.5088 21.3793 39.259 21.3793 35.2494V26.0341L23.6888 25.5752C24.6667 25.3796 25.2986 24.4318 25.103 23.4538L24.8698 22.2727C24.6742 21.2948 23.7264 20.6629 22.7484 20.8585L18.0241 21.7913C17.1816 21.9643 16.5723 22.7015 16.5723 23.5666V35.2569C16.5723 41.072 20.7173 45.9392 26.2089 47.0526C26.4045 53.8531 32.2646 59.3296 39.4413 59.3296C46.7384 59.3296 52.6813 53.6575 52.6813 46.6915V38.2209C54.1181 37.3859 55.0886 35.8362 55.0886 34.0533C55.0886 31.3677 52.8919 29.2012 50.2063 29.2388ZM50.274 35.2569C49.612 35.2569 49.0704 34.7153 49.0704 34.0533C49.0704 33.3913 49.612 32.8497 50.274 32.8497C50.936 32.8497 51.4777 33.3913 51.4777 34.0533C51.4777 34.7153 50.936 35.2569 50.274 35.2569Z" fill="#5BC0BE"/>
</g>
<path d="M83.6713 36.4585C84.8007 37.3997 86.0714 38.1684 87.4832 38.7645C88.8951 39.3606 90.5422 39.6587 92.4246 39.6587C94.6836 39.6587 96.4719 39.188 97.7896 38.2468C99.1073 37.3056 99.7662 36.0349 99.7662 34.4349C99.7662 33.776 99.6721 33.1642 99.4838 32.5995C99.2956 32.0347 98.9191 31.5014 98.3544 30.9994C97.821 30.466 97.0523 29.9484 96.0484 29.4464C95.0758 28.913 93.8051 28.3483 92.2364 27.7522C90.5422 27.0933 89.099 26.4501 87.9068 25.8227C86.7459 25.1638 85.8047 24.4579 85.0831 23.7049C84.3615 22.9205 83.8438 22.0734 83.5301 21.1636C83.2163 20.2224 83.0595 19.1556 83.0595 17.9634C83.0595 16.8026 83.2948 15.7045 83.7654 14.6691C84.2674 13.6338 84.989 12.7396 85.9302 11.9867C86.9028 11.2023 88.0793 10.5905 89.4598 10.1513C90.8716 9.71203 92.4717 9.49241 94.26 9.49241C96.2052 9.49241 97.9465 9.69634 99.4838 10.1042C101.021 10.4807 102.543 11.0297 104.049 11.7513L102.402 15.5633C101.335 14.9358 100.08 14.4182 98.6367 14.0103C97.2249 13.571 95.7346 13.3514 94.1659 13.3514C92.0952 13.3514 90.4638 13.7593 89.2715 14.575C88.0793 15.3594 87.4832 16.4104 87.4832 17.7281C87.4832 18.3556 87.5617 18.9203 87.7185 19.4223C87.9068 19.8929 88.2519 20.3636 88.7539 20.8342C89.2872 21.2734 90.0088 21.7283 90.9187 22.1989C91.8599 22.6696 93.0992 23.1872 94.6365 23.752C96.4562 24.4422 97.9936 25.1481 99.2485 25.8697C100.503 26.5913 101.507 27.36 102.26 28.1757C103.013 28.9914 103.547 29.8699 103.861 30.8111C104.206 31.7524 104.378 32.7877 104.378 33.9172C104.378 35.4545 104.08 36.8193 103.484 38.0115C102.888 39.2037 102.057 40.2234 100.99 41.0705C99.9544 41.8862 98.6995 42.5137 97.2249 42.9529C95.7503 43.3608 94.1502 43.5647 92.4246 43.5647C90.1343 43.5647 88.048 43.2667 86.1655 42.6706C84.2831 42.0431 82.6987 41.2274 81.4123 40.2234L83.6713 36.4585ZM109.93 53.9182C108.989 53.9182 108.157 53.8241 107.436 53.6358C106.745 53.4476 106.196 53.228 105.789 52.977L106.73 49.4474C107.106 49.667 107.561 49.8553 108.095 50.0121C108.659 50.169 109.302 50.2474 110.024 50.2474C110.683 50.2474 111.295 50.1533 111.859 49.9651C112.456 49.7768 113.02 49.4474 113.554 48.9768C114.087 48.5062 114.589 47.863 115.06 47.0473C115.562 46.2315 116.048 45.2119 116.519 43.9883L117.601 41.1646H115.342L105.789 19.6576L109.553 17.9634L118.683 38.3409L125.79 18.1517L129.696 19.6576L120.707 44.2236C120.017 46.106 119.279 47.6591 118.495 48.8827C117.742 50.1376 116.926 51.1416 116.048 51.8946C115.169 52.6476 114.213 53.1652 113.177 53.4476C112.173 53.7613 111.091 53.9182 109.93 53.9182ZM138.046 22.6225C138.925 21.3048 140.023 20.2067 141.34 19.3282C142.689 18.4184 144.242 17.9634 145.999 17.9634C147.945 17.9634 149.529 18.434 150.753 19.3753C151.976 20.2851 152.855 21.5401 153.388 23.1402C154.361 21.697 155.506 20.4734 156.824 19.4694C158.173 18.4654 159.835 17.9634 161.812 17.9634C163.13 17.9634 164.275 18.1831 165.247 18.6223C166.251 19.0615 167.083 19.689 167.742 20.5047C168.401 21.2891 168.887 22.246 169.201 23.3755C169.546 24.4736 169.718 25.6972 169.718 27.0462V43H165.483V27.3757C165.483 25.6815 165.091 24.3167 164.306 23.2813C163.522 22.2146 162.439 21.6813 161.059 21.6813C160.337 21.6813 159.647 21.8225 158.988 22.1048C158.329 22.3872 157.702 22.7794 157.106 23.2813C156.51 23.752 155.945 24.3167 155.412 24.9756C154.878 25.603 154.392 26.2619 153.953 26.9521V43H149.717V27.3757C149.717 25.6815 149.325 24.3167 148.541 23.2813C147.756 22.2146 146.674 21.6813 145.294 21.6813C144.603 21.6813 143.929 21.8225 143.27 22.1048C142.611 22.3558 141.968 22.7166 141.34 23.1872C140.744 23.6578 140.18 24.2069 139.646 24.8344C139.113 25.4619 138.627 26.1207 138.187 26.8109V43H133.952V18.5282H138.046V22.6225ZM176.026 18.5282C178.913 18.5282 180.717 19.6733 181.438 21.9636C181.658 21.6185 181.987 21.2107 182.427 20.74C182.897 20.2694 183.462 19.8302 184.121 19.4223C184.78 19.0145 185.533 18.6694 186.38 18.387C187.227 18.1046 188.168 17.9634 189.203 17.9634C190.615 17.9634 191.964 18.2458 193.251 18.8105C194.568 19.3753 195.714 20.191 196.686 21.2577C197.69 22.3244 198.49 23.6422 199.086 25.2109C199.682 26.7796 199.98 28.5522 199.98 30.5288C199.98 32.474 199.682 34.2466 199.086 35.8467C198.522 37.4468 197.737 38.8272 196.733 39.9881C195.761 41.1176 194.631 41.996 193.345 42.6235C192.059 43.251 190.709 43.5647 189.298 43.5647C187.823 43.5647 186.458 43.2824 185.203 42.7176C183.98 42.1215 182.96 41.447 182.144 40.694V53.3535H177.909V24.7873C177.909 23.7206 177.642 22.9676 177.109 22.5284C176.607 22.0578 175.948 21.8225 175.132 21.8225L176.026 18.5282ZM195.651 30.67C195.651 29.2581 195.447 28.0032 195.039 26.9051C194.663 25.7756 194.129 24.8187 193.439 24.0343C192.78 23.25 191.996 22.6539 191.086 22.246C190.207 21.8381 189.266 21.6342 188.262 21.6342C186.913 21.6342 185.69 21.9793 184.591 22.6696C183.525 23.3284 182.709 24.05 182.144 24.8344V36.882C182.96 37.7291 183.886 38.4351 184.921 38.9998C185.988 39.5332 187.164 39.7998 188.45 39.7998C189.517 39.7998 190.49 39.5802 191.368 39.141C192.247 38.7017 193 38.0899 193.627 37.3056C194.286 36.4899 194.788 35.533 195.133 34.4349C195.478 33.3054 195.651 32.0504 195.651 30.67ZM207.806 11.7043H211.053V19.4223H217.83V23.0931H211.053V34.9055C211.053 35.8153 211.147 36.584 211.335 37.2115C211.555 37.839 211.837 38.3409 212.183 38.7174C212.528 39.0939 212.936 39.3763 213.406 39.5645C213.908 39.7214 214.426 39.7998 214.959 39.7998C215.744 39.7998 216.481 39.6743 217.171 39.4233C217.861 39.1724 218.52 38.8743 219.148 38.5292L220.324 41.9176C219.697 42.2941 218.85 42.6549 217.783 43C216.716 43.3765 215.602 43.5647 214.442 43.5647C212.088 43.5647 210.222 42.7961 208.841 41.2587C207.492 39.7214 206.818 37.4938 206.818 34.576V23.0931H202.582V19.4223H206.912L207.806 11.7043ZM241.828 30.7641C241.828 29.5405 241.624 28.3796 241.216 27.2816C240.84 26.1835 240.291 25.2265 239.569 24.4108C238.879 23.5951 238.047 22.9519 237.075 22.4813C236.133 21.9793 235.098 21.7283 233.969 21.7283C231.49 21.7283 229.561 22.5441 228.18 24.1755C226.8 25.807 226.109 27.9718 226.109 30.67C226.109 31.8936 226.298 33.0701 226.674 34.1996C227.082 35.2976 227.631 36.2702 228.321 37.1173C229.043 37.9331 229.874 38.5919 230.816 39.0939C231.788 39.5645 232.839 39.7998 233.969 39.7998C235.192 39.7998 236.29 39.5802 237.263 39.141C238.235 38.7017 239.051 38.0899 239.71 37.3056C240.4 36.4899 240.918 35.533 241.263 34.4349C241.64 33.3368 241.828 32.1132 241.828 30.7641ZM221.78 30.7641C221.78 28.7875 222.093 27.0149 222.721 25.4462C223.348 23.8461 224.196 22.497 225.262 21.3989C226.36 20.3008 227.647 19.4537 229.121 18.8576C230.627 18.2615 232.243 17.9634 233.969 17.9634C235.663 17.9634 237.247 18.2615 238.722 18.8576C240.228 19.4537 241.53 20.3008 242.628 21.3989C243.726 22.497 244.589 23.8304 245.216 25.3991C245.844 26.9678 246.157 28.7248 246.157 30.67C246.157 32.6152 245.844 34.3878 245.216 35.9879C244.62 37.5566 243.773 38.9057 242.675 40.0351C241.577 41.1646 240.275 42.0431 238.769 42.6706C237.294 43.2667 235.694 43.5647 233.969 43.5647C232.212 43.5647 230.58 43.251 229.074 42.6235C227.6 41.996 226.313 41.1176 225.215 39.9881C224.149 38.8586 223.301 37.5095 222.674 35.9408C222.078 34.3721 221.78 32.6465 221.78 30.7641ZM255.883 22.6225C256.761 21.3048 257.86 20.2067 259.177 19.3282C260.526 18.4184 262.079 17.9634 263.836 17.9634C265.782 17.9634 267.366 18.434 268.589 19.3753C269.813 20.2851 270.692 21.5401 271.225 23.1402C272.198 21.697 273.343 20.4734 274.66 19.4694C276.009 18.4654 277.672 17.9634 279.649 17.9634C280.967 17.9634 282.112 18.1831 283.084 18.6223C284.088 19.0615 284.92 19.689 285.579 20.5047C286.237 21.2891 286.724 22.246 287.037 23.3755C287.383 24.4736 287.555 25.6972 287.555 27.0462V43H283.32V27.3757C283.32 25.6815 282.927 24.3167 282.143 23.2813C281.359 22.2146 280.276 21.6813 278.896 21.6813C278.174 21.6813 277.484 21.8225 276.825 22.1048C276.166 22.3872 275.539 22.7794 274.943 23.2813C274.347 23.752 273.782 24.3167 273.249 24.9756C272.715 25.603 272.229 26.2619 271.79 26.9521V43H267.554V27.3757C267.554 25.6815 267.162 24.3167 266.378 23.2813C265.593 22.2146 264.511 21.6813 263.13 21.6813C262.44 21.6813 261.766 21.8225 261.107 22.1048C260.448 22.3558 259.805 22.7166 259.177 23.1872C258.581 23.6578 258.016 24.2069 257.483 24.8344C256.95 25.4619 256.463 26.1207 256.024 26.8109V43H251.789V18.5282H255.883V22.6225ZM299.087 43H294.851V18.5282H299.087V43ZM296.969 14.3397C296.154 14.3397 295.448 14.0573 294.851 13.4926C294.287 12.8965 294.004 12.1906 294.004 11.3749C294.004 10.465 294.271 9.7434 294.804 9.21004C295.338 8.67668 296.059 8.41 296.969 8.41C297.785 8.41 298.475 8.70806 299.04 9.30417C299.636 9.8689 299.934 10.5591 299.934 11.3749C299.934 12.2847 299.667 13.0063 299.134 13.5397C298.601 14.073 297.879 14.3397 296.969 14.3397ZM304.781 18.5282H323.182V21.7754L309.723 39.2351H323.418V43H304.499V39.6587L318.006 22.1989H304.781V18.5282ZM331.038 32.5053C331.32 34.7957 332.12 36.584 333.438 37.8703C334.755 39.1567 336.497 39.7998 338.661 39.7998C340.073 39.7998 341.344 39.6587 342.473 39.3763C343.603 39.0625 344.685 38.6704 345.721 38.1998L346.709 41.8235C345.579 42.3568 344.309 42.7804 342.897 43.0941C341.485 43.4079 339.901 43.5647 338.144 43.5647C336.387 43.5647 334.802 43.2824 333.391 42.7176C331.979 42.1215 330.771 41.2901 329.767 40.2234C328.794 39.1253 328.041 37.7919 327.508 36.2232C326.975 34.6231 326.708 32.8034 326.708 30.7641C326.708 28.9444 326.975 27.2502 327.508 25.6815C328.041 24.1128 328.794 22.7637 329.767 21.6342C330.739 20.4734 331.9 19.5792 333.249 18.9517C334.599 18.2929 336.104 17.9634 337.767 17.9634C339.524 17.9634 341.062 18.2615 342.379 18.8576C343.697 19.4537 344.795 20.2694 345.674 21.3048C346.552 22.3401 347.211 23.548 347.65 24.9285C348.089 26.309 348.309 27.7679 348.309 29.3052C348.309 30.4033 348.262 31.47 348.168 32.5053H331.038ZM337.673 21.6342C335.822 21.6342 334.3 22.2617 333.108 23.5167C331.947 24.7716 331.241 26.6227 330.99 29.0699H344.403C344.403 26.6854 343.807 24.8501 342.615 23.5637C341.422 22.2774 339.775 21.6342 337.673 21.6342Z" fill="white"/>
<rect x="80" y="58.3033" width="268.195" height="1.06006" fill="white"/>
<path d="M122.583 66.9572H128.37V68.0872H123.892V71.0225H127.75V72.125H123.892V75.4737H128.37V76.6038H122.583V66.9572ZM133.975 70.6367C133.8 70.5632 133.594 70.5264 133.355 70.5264C133.098 70.5264 132.845 70.5816 132.597 70.6918C132.358 70.802 132.142 70.9674 131.949 71.1879C131.765 71.4084 131.614 71.6932 131.494 72.0423C131.384 72.3822 131.329 72.7865 131.329 73.255V76.6038H130.089V69.4377H131.288V70.995C131.37 70.7745 131.481 70.5586 131.618 70.3473C131.756 70.136 131.917 69.9522 132.101 69.796C132.294 69.6399 132.514 69.5158 132.762 69.424C133.01 69.3229 133.286 69.2724 133.589 69.2724C133.727 69.2724 133.86 69.2816 133.989 69.2999C134.127 69.3091 134.246 69.3275 134.347 69.3551L133.975 70.6367ZM135.147 74.9914C135.386 75.2027 135.684 75.3727 136.042 75.5013C136.41 75.6299 136.8 75.6942 137.214 75.6942C137.728 75.6942 138.114 75.6115 138.371 75.4462C138.638 75.2716 138.771 75.0511 138.771 74.7847C138.771 74.6469 138.743 74.5183 138.688 74.3988C138.642 74.2794 138.551 74.1646 138.413 74.0543C138.284 73.9441 138.105 73.8384 137.875 73.7374C137.646 73.6271 137.347 73.5077 136.98 73.3791C136.3 73.1494 135.794 72.8784 135.464 72.566C135.133 72.2444 134.968 71.8034 134.968 71.243C134.968 70.9674 135.027 70.7102 135.147 70.4713C135.275 70.2324 135.454 70.0257 135.684 69.8512C135.923 69.6674 136.208 69.525 136.539 69.424C136.878 69.3229 137.264 69.2724 137.696 69.2724C138.165 69.2724 138.573 69.3229 138.923 69.424C139.281 69.5158 139.602 69.6353 139.887 69.7823L139.543 70.802C139.295 70.6551 139.01 70.5356 138.688 70.4437C138.376 70.3519 138.027 70.3059 137.641 70.3059C137.163 70.3059 136.8 70.4024 136.552 70.5953C136.304 70.7883 136.18 70.9996 136.18 71.2292C136.18 71.3395 136.199 71.4406 136.235 71.5324C136.281 71.6243 136.359 71.7116 136.47 71.7943C136.58 71.8769 136.727 71.9596 136.911 72.0423C137.094 72.125 137.324 72.2123 137.6 72.3042C138.05 72.4603 138.431 72.6211 138.743 72.7865C139.056 72.9427 139.308 73.1172 139.501 73.3101C139.694 73.5031 139.832 73.7144 139.915 73.9441C139.997 74.1646 140.039 74.4126 140.039 74.6882C140.039 75.0098 139.97 75.2992 139.832 75.5564C139.694 75.8137 139.501 76.0342 139.253 76.2179C139.005 76.3925 138.702 76.5257 138.344 76.6175C137.995 76.7186 137.604 76.7691 137.172 76.7691C136.621 76.7691 136.13 76.7002 135.698 76.5624C135.266 76.4246 134.908 76.2455 134.623 76.025L135.147 74.9914ZM142.254 67.4395H143.205V69.6996H145.19V70.7745H143.205V74.2335C143.205 74.4999 143.233 74.725 143.288 74.9087C143.352 75.0925 143.435 75.2395 143.536 75.3497C143.637 75.46 143.757 75.5426 143.894 75.5978C144.041 75.6437 144.193 75.6667 144.349 75.6667C144.579 75.6667 144.795 75.6299 144.997 75.5564C145.199 75.4829 145.392 75.3956 145.576 75.2946L145.92 76.2868C145.736 76.397 145.488 76.5027 145.176 76.6038C144.864 76.714 144.537 76.7691 144.198 76.7691C143.508 76.7691 142.962 76.544 142.558 76.0939C142.163 75.6437 141.965 74.9914 141.965 74.137V70.7745H140.725V69.6996H141.993L142.254 67.4395ZM147.683 73.5306C147.766 74.2013 148 74.725 148.386 75.1017C148.772 75.4783 149.282 75.6667 149.916 75.6667C150.329 75.6667 150.701 75.6253 151.032 75.5426C151.363 75.4508 151.68 75.3359 151.983 75.1981L152.272 76.2592C151.941 76.4154 151.569 76.5394 151.156 76.6313C150.742 76.7232 150.278 76.7691 149.764 76.7691C149.25 76.7691 148.786 76.6864 148.372 76.5211C147.959 76.3465 147.605 76.1031 147.311 75.7907C147.026 75.4691 146.806 75.0787 146.65 74.6193C146.493 74.1508 146.415 73.6179 146.415 73.0208C146.415 72.4879 146.493 71.9918 146.65 71.5324C146.806 71.0731 147.026 70.678 147.311 70.3473C147.596 70.0074 147.936 69.7455 148.331 69.5618C148.726 69.3688 149.167 69.2724 149.654 69.2724C150.168 69.2724 150.618 69.3597 151.004 69.5342C151.39 69.7088 151.712 69.9476 151.969 70.2508C152.226 70.554 152.419 70.9077 152.548 71.3119C152.676 71.7162 152.741 72.1434 152.741 72.5935C152.741 72.9151 152.727 73.2275 152.699 73.5306H147.683ZM149.626 70.3473C149.084 70.3473 148.639 70.531 148.289 70.8985C147.95 71.266 147.743 71.808 147.669 72.5246H151.597C151.597 71.8264 151.422 71.289 151.073 70.9123C150.724 70.5356 150.242 70.3473 149.626 70.3473ZM155.565 74.2335C155.565 74.7296 155.666 75.0971 155.868 75.3359C156.079 75.5748 156.369 75.6942 156.736 75.6942C156.911 75.6942 157.081 75.6759 157.246 75.6391C157.412 75.5932 157.559 75.5426 157.687 75.4875L157.99 76.4935C157.825 76.567 157.618 76.6313 157.37 76.6864C157.131 76.7416 156.865 76.7691 156.571 76.7691C156.249 76.7691 155.951 76.7232 155.675 76.6313C155.409 76.5394 155.174 76.397 154.972 76.2041C154.77 76.0112 154.609 75.7631 154.49 75.46C154.38 75.1568 154.325 74.7893 154.325 74.3575V66.406H155.565V74.2335ZM160.194 74.2335C160.194 74.7296 160.295 75.0971 160.498 75.3359C160.709 75.5748 160.998 75.6942 161.366 75.6942C161.54 75.6942 161.71 75.6759 161.876 75.6391C162.041 75.5932 162.188 75.5426 162.317 75.4875L162.62 76.4935C162.454 76.567 162.248 76.6313 162 76.6864C161.761 76.7416 161.494 76.7691 161.2 76.7691C160.879 76.7691 160.58 76.7232 160.305 76.6313C160.038 76.5394 159.804 76.397 159.602 76.2041C159.4 76.0112 159.239 75.7631 159.12 75.46C159.009 75.1568 158.954 74.7893 158.954 74.3575V66.406H160.194V74.2335ZM164.371 73.5306C164.453 74.2013 164.688 74.725 165.074 75.1017C165.459 75.4783 165.969 75.6667 166.603 75.6667C167.017 75.6667 167.389 75.6253 167.72 75.5426C168.05 75.4508 168.367 75.3359 168.67 75.1981L168.96 76.2592C168.629 76.4154 168.257 76.5394 167.844 76.6313C167.43 76.7232 166.966 76.7691 166.452 76.7691C165.937 76.7691 165.473 76.6864 165.06 76.5211C164.646 76.3465 164.293 76.1031 163.999 75.7907C163.714 75.4691 163.493 75.0787 163.337 74.6193C163.181 74.1508 163.103 73.6179 163.103 73.0208C163.103 72.4879 163.181 71.9918 163.337 71.5324C163.493 71.0731 163.714 70.678 163.999 70.3473C164.283 70.0074 164.623 69.7455 165.018 69.5618C165.414 69.3688 165.855 69.2724 166.341 69.2724C166.856 69.2724 167.306 69.3597 167.692 69.5342C168.078 69.7088 168.399 69.9476 168.657 70.2508C168.914 70.554 169.107 70.9077 169.235 71.3119C169.364 71.7162 169.428 72.1434 169.428 72.5935C169.428 72.9151 169.415 73.2275 169.387 73.5306H164.371ZM166.314 70.3473C165.772 70.3473 165.326 70.531 164.977 70.8985C164.637 71.266 164.43 71.808 164.357 72.5246H168.285C168.285 71.8264 168.11 71.289 167.761 70.9123C167.412 70.5356 166.929 70.3473 166.314 70.3473ZM175.998 73.5306C176.081 74.2013 176.315 74.725 176.701 75.1017C177.087 75.4783 177.597 75.6667 178.231 75.6667C178.644 75.6667 179.016 75.6253 179.347 75.5426C179.678 75.4508 179.995 75.3359 180.298 75.1981L180.587 76.2592C180.257 76.4154 179.884 76.5394 179.471 76.6313C179.058 76.7232 178.594 76.7691 178.079 76.7691C177.565 76.7691 177.101 76.6864 176.687 76.5211C176.274 76.3465 175.92 76.1031 175.626 75.7907C175.341 75.4691 175.121 75.0787 174.965 74.6193C174.809 74.1508 174.73 73.6179 174.73 73.0208C174.73 72.4879 174.809 71.9918 174.965 71.5324C175.121 71.0731 175.341 70.678 175.626 70.3473C175.911 70.0074 176.251 69.7455 176.646 69.5618C177.041 69.3688 177.482 69.2724 177.969 69.2724C178.483 69.2724 178.934 69.3597 179.319 69.5342C179.705 69.7088 180.027 69.9476 180.284 70.2508C180.541 70.554 180.734 70.9077 180.863 71.3119C180.992 71.7162 181.056 72.1434 181.056 72.5935C181.056 72.9151 181.042 73.2275 181.015 73.5306H175.998ZM177.941 70.3473C177.399 70.3473 176.954 70.531 176.605 70.8985C176.265 71.266 176.058 71.808 175.985 72.5246H179.912C179.912 71.8264 179.738 71.289 179.388 70.9123C179.039 70.5356 178.557 70.3473 177.941 70.3473ZM183.949 76.6038H182.709V69.4377H183.949V76.6038ZM183.329 68.2113C183.09 68.2113 182.883 68.1286 182.709 67.9632C182.543 67.7886 182.461 67.5819 182.461 67.3431C182.461 67.0766 182.539 66.8653 182.695 66.7091C182.851 66.553 183.063 66.4749 183.329 66.4749C183.568 66.4749 183.77 66.5622 183.935 66.7367C184.11 66.9021 184.197 67.1042 184.197 67.3431C184.197 67.6095 184.119 67.8208 183.963 67.977C183.807 68.1332 183.595 68.2113 183.329 68.2113ZM187.353 70.6367C187.61 70.2508 187.936 69.9293 188.331 69.672C188.736 69.4056 189.213 69.2724 189.765 69.2724C190.573 69.2724 191.175 69.5158 191.57 70.0028C191.974 70.4897 192.176 71.1328 192.176 71.9321V76.6038H190.936V72.0699C190.936 71.5462 190.817 71.1328 190.578 70.8296C190.339 70.5172 189.999 70.3611 189.558 70.3611C189.347 70.3611 189.14 70.4024 188.938 70.4851C188.736 70.5586 188.538 70.6642 188.345 70.802C188.161 70.9399 187.987 71.1006 187.821 71.2844C187.665 71.4681 187.523 71.661 187.394 71.8632V76.6038H186.154V69.4377H187.353V70.6367ZM198.413 74.6882C198.744 74.9638 199.116 75.1889 199.53 75.3635C199.943 75.538 200.425 75.6253 200.977 75.6253C201.638 75.6253 202.162 75.4875 202.548 75.2119C202.934 74.9363 203.126 74.5642 203.126 74.0957C203.126 73.9027 203.099 73.7236 203.044 73.5582C202.989 73.3928 202.878 73.2367 202.713 73.0897C202.557 72.9335 202.332 72.7819 202.038 72.6349C201.753 72.4787 201.381 72.3133 200.922 72.1388C200.425 71.9459 200.003 71.7575 199.654 71.5738C199.314 71.3808 199.038 71.1741 198.827 70.9536C198.616 70.724 198.464 70.4759 198.372 70.2095C198.28 69.9339 198.234 69.6215 198.234 69.2724C198.234 68.9325 198.303 68.6109 198.441 68.3077C198.588 68.0045 198.799 67.7427 199.075 67.5222C199.36 67.2925 199.704 67.1134 200.108 66.9848C200.522 66.8561 200.99 66.7918 201.514 66.7918C202.084 66.7918 202.594 66.8516 203.044 66.971C203.494 67.0812 203.94 67.242 204.381 67.4533L203.898 68.5696C203.586 68.3858 203.218 68.2342 202.796 68.1148C202.382 67.9862 201.946 67.9219 201.487 67.9219C200.88 67.9219 200.402 68.0413 200.053 68.2802C199.704 68.5098 199.53 68.8176 199.53 69.2035C199.53 69.3872 199.553 69.5526 199.599 69.6996C199.654 69.8374 199.755 69.9752 199.902 70.113C200.058 70.2416 200.269 70.3748 200.536 70.5126C200.811 70.6505 201.174 70.802 201.624 70.9674C202.157 71.1695 202.607 71.3762 202.975 71.5876C203.342 71.7989 203.636 72.0239 203.857 72.2628C204.077 72.5017 204.234 72.7589 204.325 73.0345C204.426 73.3101 204.477 73.6133 204.477 73.9441C204.477 74.3942 204.39 74.7939 204.215 75.143C204.041 75.4921 203.797 75.7907 203.485 76.0387C203.182 76.2776 202.814 76.4614 202.382 76.59C201.95 76.7094 201.482 76.7691 200.977 76.7691C200.306 76.7691 199.695 76.6819 199.144 76.5073C198.593 76.3236 198.129 76.0847 197.752 75.7907L198.413 74.6882ZM206.103 79.8009C205.827 79.8009 205.584 79.7733 205.372 79.7182C205.17 79.6631 205.009 79.5988 204.89 79.5253L205.166 78.4917C205.276 78.556 205.409 78.6112 205.565 78.6571C205.731 78.703 205.919 78.726 206.13 78.726C206.323 78.726 206.502 78.6984 206.668 78.6433C206.842 78.5882 207.008 78.4917 207.164 78.3539C207.32 78.2161 207.467 78.0278 207.605 77.7889C207.752 77.55 207.894 77.2515 208.032 76.8932L208.349 76.0663H207.687L204.89 69.7685L205.992 69.2724L208.666 75.2395L210.747 69.3275L211.891 69.7685L209.258 76.9621C209.056 77.5133 208.84 77.9681 208.611 78.3264C208.39 78.6938 208.151 78.9878 207.894 79.2083C207.637 79.4288 207.357 79.5804 207.054 79.6631C206.76 79.755 206.443 79.8009 206.103 79.8009ZM214.336 70.6367C214.593 70.2508 214.915 69.9293 215.3 69.672C215.696 69.4056 216.15 69.2724 216.665 69.2724C217.234 69.2724 217.698 69.4102 218.057 69.6858C218.415 69.9522 218.672 70.3197 218.828 70.7883C219.113 70.3657 219.449 70.0074 219.834 69.7134C220.229 69.4194 220.716 69.2724 221.295 69.2724C221.681 69.2724 222.016 69.3367 222.301 69.4653C222.595 69.5939 222.839 69.7777 223.032 70.0165C223.224 70.2462 223.367 70.5264 223.459 70.8572C223.56 71.1787 223.61 71.537 223.61 71.9321V76.6038H222.37V72.0285C222.37 71.5324 222.255 71.1328 222.026 70.8296C221.796 70.5172 221.479 70.3611 221.075 70.3611C220.863 70.3611 220.661 70.4024 220.468 70.4851C220.275 70.5678 220.092 70.6826 219.917 70.8296C219.743 70.9674 219.577 71.1328 219.421 71.3257C219.265 71.5095 219.122 71.7024 218.994 71.9045V76.6038H217.753V72.0285C217.753 71.5324 217.639 71.1328 217.409 70.8296C217.179 70.5172 216.862 70.3611 216.458 70.3611C216.256 70.3611 216.058 70.4024 215.866 70.4851C215.673 70.5586 215.484 70.6642 215.3 70.802C215.126 70.9399 214.961 71.1006 214.804 71.2844C214.648 71.4681 214.506 71.661 214.377 71.8632V76.6038H213.137V69.4377H214.336V70.6367ZM225.457 69.4377C226.303 69.4377 226.831 69.7731 227.042 70.4437C227.107 70.3427 227.203 70.2233 227.332 70.0854C227.469 69.9476 227.635 69.819 227.828 69.6996C228.021 69.5801 228.241 69.4791 228.489 69.3964C228.737 69.3137 229.013 69.2724 229.316 69.2724C229.73 69.2724 230.125 69.3551 230.501 69.5204C230.887 69.6858 231.222 69.9247 231.507 70.237C231.801 70.5494 232.036 70.9353 232.21 71.3946C232.385 71.854 232.472 72.3731 232.472 72.9518C232.472 73.5215 232.385 74.0405 232.21 74.5091C232.045 74.9776 231.815 75.3819 231.521 75.7218C231.236 76.0525 230.905 76.3098 230.529 76.4935C230.152 76.6773 229.757 76.7691 229.344 76.7691C228.912 76.7691 228.512 76.6864 228.145 76.5211C227.786 76.3465 227.488 76.149 227.249 75.9285V79.6355H226.009V71.2706C226.009 70.9582 225.931 70.7377 225.774 70.6091C225.627 70.4713 225.435 70.4024 225.196 70.4024L225.457 69.4377ZM231.204 72.9932C231.204 72.5798 231.144 72.2123 231.025 71.8907C230.915 71.56 230.758 71.2798 230.556 71.0501C230.363 70.8204 230.134 70.6459 229.867 70.5264C229.61 70.407 229.334 70.3473 229.04 70.3473C228.645 70.3473 228.287 70.4483 227.966 70.6505C227.653 70.8434 227.414 71.0547 227.249 71.2844V74.8123C227.488 75.0603 227.759 75.267 228.062 75.4324C228.374 75.5886 228.719 75.6667 229.096 75.6667C229.408 75.6667 229.693 75.6024 229.95 75.4737C230.207 75.3451 230.428 75.166 230.611 74.9363C230.804 74.6974 230.951 74.4172 231.052 74.0957C231.154 73.7649 231.204 73.3974 231.204 72.9932ZM234.763 67.4395H235.714V69.6996H237.699V70.7745H235.714V74.2335C235.714 74.4999 235.742 74.725 235.797 74.9087C235.861 75.0925 235.944 75.2395 236.045 75.3497C236.146 75.46 236.265 75.5426 236.403 75.5978C236.55 75.6437 236.702 75.6667 236.858 75.6667C237.088 75.6667 237.304 75.6299 237.506 75.5564C237.708 75.4829 237.901 75.3956 238.085 75.2946L238.429 76.2868C238.245 76.397 237.997 76.5027 237.685 76.6038C237.373 76.714 237.046 76.7691 236.706 76.7691C236.017 76.7691 235.471 76.544 235.067 76.0939C234.672 75.6437 234.474 74.9914 234.474 74.137V70.7745H233.234V69.6996H234.502L234.763 67.4395ZM244.726 73.0208C244.726 72.6625 244.666 72.3225 244.547 72.001C244.437 71.6794 244.276 71.3992 244.064 71.1603C243.862 70.9215 243.619 70.7331 243.334 70.5953C243.058 70.4483 242.755 70.3748 242.425 70.3748C241.699 70.3748 241.134 70.6137 240.73 71.0914C240.325 71.5692 240.123 72.2031 240.123 72.9932C240.123 73.3515 240.178 73.696 240.289 74.0268C240.408 74.3483 240.569 74.6331 240.771 74.8812C240.982 75.12 241.226 75.313 241.501 75.46C241.786 75.5978 242.094 75.6667 242.425 75.6667C242.783 75.6667 243.104 75.6024 243.389 75.4737C243.674 75.3451 243.913 75.166 244.106 74.9363C244.308 74.6974 244.46 74.4172 244.561 74.0957C244.671 73.7741 244.726 73.4158 244.726 73.0208ZM238.855 73.0208C238.855 72.442 238.947 71.9229 239.131 71.4635C239.315 70.995 239.563 70.5999 239.875 70.2784C240.197 69.9568 240.573 69.7088 241.005 69.5342C241.446 69.3597 241.919 69.2724 242.425 69.2724C242.921 69.2724 243.385 69.3597 243.816 69.5342C244.257 69.7088 244.639 69.9568 244.96 70.2784C245.282 70.5999 245.534 70.9904 245.718 71.4497C245.902 71.9091 245.994 72.4236 245.994 72.9932C245.994 73.5628 245.902 74.0819 245.718 74.5504C245.544 75.0098 245.296 75.4048 244.974 75.7356C244.652 76.0663 244.271 76.3236 243.83 76.5073C243.398 76.6819 242.93 76.7691 242.425 76.7691C241.91 76.7691 241.432 76.6773 240.991 76.4935C240.56 76.3098 240.183 76.0525 239.861 75.7218C239.549 75.391 239.301 74.996 239.117 74.5366C238.943 74.0773 238.855 73.572 238.855 73.0208ZM248.842 70.6367C249.099 70.2508 249.42 69.9293 249.806 69.672C250.201 69.4056 250.656 69.2724 251.171 69.2724C251.74 69.2724 252.204 69.4102 252.562 69.6858C252.921 69.9522 253.178 70.3197 253.334 70.7883C253.619 70.3657 253.954 70.0074 254.34 69.7134C254.735 69.4194 255.222 69.2724 255.801 69.2724C256.187 69.2724 256.522 69.3367 256.807 69.4653C257.101 69.5939 257.344 69.7777 257.537 70.0165C257.73 70.2462 257.873 70.5264 257.965 70.8572C258.066 71.1787 258.116 71.537 258.116 71.9321V76.6038H256.876V72.0285C256.876 71.5324 256.761 71.1328 256.531 70.8296C256.302 70.5172 255.985 70.3611 255.58 70.3611C255.369 70.3611 255.167 70.4024 254.974 70.4851C254.781 70.5678 254.597 70.6826 254.423 70.8296C254.248 70.9674 254.083 71.1328 253.927 71.3257C253.771 71.5095 253.628 71.7024 253.5 71.9045V76.6038H252.259V72.0285C252.259 71.5324 252.144 71.1328 251.915 70.8296C251.685 70.5172 251.368 70.3611 250.964 70.3611C250.762 70.3611 250.564 70.4024 250.371 70.4851C250.178 70.5586 249.99 70.6642 249.806 70.802C249.632 70.9399 249.466 71.1006 249.31 71.2844C249.154 71.4681 249.012 71.661 248.883 71.8632V76.6038H247.643V69.4377H248.842V70.6367ZM260.942 72.442V71.3119H265.627V72.442H260.942ZM268.654 66.9848C269.039 66.9388 269.453 66.9067 269.894 66.8883C270.344 66.8607 270.817 66.847 271.313 66.847C271.91 66.847 272.443 66.9205 272.912 67.0674C273.38 67.2144 273.775 67.4166 274.097 67.6738C274.419 67.931 274.662 68.2434 274.827 68.6109C274.993 68.9692 275.075 69.3597 275.075 69.7823C275.075 70.2967 274.974 70.7561 274.772 71.1603C274.579 71.5554 274.304 71.8907 273.945 72.1663C273.596 72.442 273.174 72.6533 272.678 72.8003C272.181 72.9381 271.635 73.007 271.038 73.007C270.652 73.007 270.294 72.9932 269.963 72.9656V76.6038H268.654V66.9848ZM271.203 71.9183C272.03 71.9183 272.664 71.7391 273.105 71.3808C273.555 71.0134 273.78 70.5172 273.78 69.8925C273.78 69.2953 273.564 68.8222 273.132 68.4731C272.71 68.124 272.094 67.9494 271.286 67.9494C271.038 67.9494 270.803 67.954 270.583 67.9632C270.362 67.9724 270.156 67.9862 269.963 68.0045V71.8494C270.11 71.8678 270.284 71.8861 270.486 71.9045C270.698 71.9137 270.937 71.9183 271.203 71.9183ZM280.409 70.6367C280.235 70.5632 280.028 70.5264 279.789 70.5264C279.532 70.5264 279.279 70.5816 279.031 70.6918C278.792 70.802 278.577 70.9674 278.384 71.1879C278.2 71.4084 278.048 71.6932 277.929 72.0423C277.819 72.3822 277.763 72.7865 277.763 73.255V76.6038H276.523V69.4377H277.722V70.995C277.805 70.7745 277.915 70.5586 278.053 70.3473C278.191 70.136 278.351 69.9522 278.535 69.796C278.728 69.6399 278.949 69.5158 279.197 69.424C279.445 69.3229 279.72 69.2724 280.024 69.2724C280.161 69.2724 280.295 69.2816 280.423 69.2999C280.561 69.3091 280.68 69.3275 280.781 69.3551L280.409 70.6367ZM286.93 73.0208C286.93 72.6625 286.87 72.3225 286.75 72.001C286.64 71.6794 286.479 71.3992 286.268 71.1603C286.066 70.9215 285.823 70.7331 285.538 70.5953C285.262 70.4483 284.959 70.3748 284.628 70.3748C283.902 70.3748 283.337 70.6137 282.933 71.0914C282.529 71.5692 282.327 72.2031 282.327 72.9932C282.327 73.3515 282.382 73.696 282.492 74.0268C282.612 74.3483 282.772 74.6331 282.975 74.8812C283.186 75.12 283.429 75.313 283.705 75.46C283.99 75.5978 284.297 75.6667 284.628 75.6667C284.987 75.6667 285.308 75.6024 285.593 75.4737C285.878 75.3451 286.117 75.166 286.309 74.9363C286.512 74.6974 286.663 74.4172 286.764 74.0957C286.874 73.7741 286.93 73.4158 286.93 73.0208ZM281.059 73.0208C281.059 72.442 281.151 71.9229 281.335 71.4635C281.518 70.995 281.766 70.5999 282.079 70.2784C282.4 69.9568 282.777 69.7088 283.209 69.5342C283.65 69.3597 284.123 69.2724 284.628 69.2724C285.124 69.2724 285.588 69.3597 286.02 69.5342C286.461 69.7088 286.842 69.9568 287.164 70.2784C287.485 70.5999 287.738 70.9904 287.922 71.4497C288.106 71.9091 288.197 72.4236 288.197 72.9932C288.197 73.5628 288.106 74.0819 287.922 74.5504C287.747 75.0098 287.499 75.4048 287.178 75.7356C286.856 76.0663 286.475 76.3236 286.034 76.5073C285.602 76.6819 285.134 76.7691 284.628 76.7691C284.114 76.7691 283.636 76.6773 283.195 76.4935C282.763 76.3098 282.387 76.0525 282.065 75.7218C281.753 75.391 281.505 74.996 281.321 74.5366C281.146 74.0773 281.059 73.572 281.059 73.0208ZM293.857 67.7427C293.664 67.6416 293.457 67.5498 293.236 67.4671C293.016 67.3844 292.773 67.3431 292.506 67.3431C292.12 67.3431 291.808 67.4671 291.569 67.7151C291.339 67.954 291.224 68.3077 291.224 68.7763V69.6996H293.347V70.7745H291.224V76.6038H289.984V70.7745H288.882V69.6996H289.984V68.859C289.984 68.4547 290.044 68.0918 290.163 67.7703C290.283 67.4487 290.448 67.1731 290.659 66.9434C290.871 66.7137 291.128 66.5392 291.431 66.4198C291.734 66.3003 292.065 66.2406 292.423 66.2406C292.809 66.2406 293.14 66.2865 293.416 66.3784C293.7 66.4611 293.971 66.5667 294.229 66.6954L293.857 67.7427ZM295.878 76.6038H294.637V69.4377H295.878V76.6038ZM295.258 68.2113C295.019 68.2113 294.812 68.1286 294.637 67.9632C294.472 67.7886 294.389 67.5819 294.389 67.3431C294.389 67.0766 294.467 66.8653 294.624 66.7091C294.78 66.553 294.991 66.4749 295.258 66.4749C295.496 66.4749 295.699 66.5622 295.864 66.7367C296.038 66.9021 296.126 67.1042 296.126 67.3431C296.126 67.6095 296.048 67.8208 295.891 67.977C295.735 68.1332 295.524 68.2113 295.258 68.2113ZM299.254 74.2335C299.254 74.7296 299.355 75.0971 299.557 75.3359C299.768 75.5748 300.058 75.6942 300.425 75.6942C300.6 75.6942 300.77 75.6759 300.935 75.6391C301.101 75.5932 301.248 75.5426 301.376 75.4875L301.679 76.4935C301.514 76.567 301.307 76.6313 301.059 76.6864C300.82 76.7416 300.554 76.7691 300.26 76.7691C299.938 76.7691 299.64 76.7232 299.364 76.6313C299.098 76.5394 298.863 76.397 298.661 76.2041C298.459 76.0112 298.298 75.7631 298.179 75.46C298.069 75.1568 298.014 74.7893 298.014 74.3575V66.406H299.254V74.2335Z" fill="#B7B7B7"/>
<defs>
<clipPath id="clip0">
<rect width="38.5163" height="38.5163" fill="white" transform="translate(16.5723 20.8126)"/>
</clipPath>
</defs>
</svg>
