<svg width="283" height="84" viewBox="0 0 283 84" fill="none" xmlns="http://www.w3.org/2000/svg">
<path d="M4.00901 38.529C5.18666 39.5104 6.51152 40.3119 7.98358 40.9334C9.45565 41.555 11.1731 41.8657 13.1358 41.8657C15.4911 41.8657 17.3557 41.375 18.7297 40.3937C20.1036 39.4123 20.7905 38.0874 20.7905 36.4191C20.7905 35.7321 20.6924 35.0942 20.4961 34.5054C20.2999 33.9166 19.9073 33.3605 19.3185 32.8371C18.7624 32.2809 17.9609 31.7412 16.9141 31.2178C15.9 30.6617 14.5752 30.0728 12.9395 29.4513C11.1731 28.7643 9.66828 28.0937 8.4252 27.4395C7.21484 26.7525 6.23346 26.0165 5.48107 25.2314C4.72869 24.4136 4.18893 23.5303 3.8618 22.5817C3.53468 21.6003 3.37111 20.4881 3.37111 19.245C3.37111 18.0346 3.61646 16.8897 4.10715 15.8102C4.63055 14.7307 5.38294 13.7984 6.36431 13.0133C7.3784 12.1954 8.60512 11.5575 10.0445 11.0996C11.5165 10.6416 13.1849 10.4126 15.0495 10.4126C17.0777 10.4126 18.8932 10.6252 20.4961 11.0505C22.0991 11.443 23.6856 12.0155 25.2558 12.7679L23.5384 16.7425C22.4262 16.0882 21.1177 15.5485 19.6129 15.1232C18.1408 14.6652 16.587 14.4362 14.9514 14.4362C12.7923 14.4362 11.0913 14.8615 9.8482 15.712C8.60512 16.5299 7.98358 17.6257 7.98358 18.9997C7.98358 19.6539 8.06537 20.2427 8.22893 20.7661C8.4252 21.2568 8.78504 21.7475 9.30844 22.2382C9.86456 22.6962 10.6169 23.1705 11.5656 23.6612C12.547 24.1519 13.8391 24.6916 15.442 25.2805C17.3394 26.0001 18.9423 26.7362 20.2508 27.4886C21.5593 28.2409 22.6061 29.0424 23.3912 29.8929C24.1763 30.7435 24.7324 31.6594 25.0595 32.6408C25.4194 33.6222 25.5993 34.7017 25.5993 35.8793C25.5993 37.4822 25.2885 38.9052 24.667 40.1483C24.0454 41.3914 23.1786 42.4545 22.0663 43.3378C20.9868 44.1883 19.6783 44.8426 18.1408 45.3005C16.6033 45.7258 14.935 45.9384 13.1358 45.9384C10.7478 45.9384 8.57241 45.6277 6.60966 45.0061C4.6469 44.3519 2.99492 43.5014 1.65371 42.4545L4.00901 38.529ZM31.3879 56.7336C30.4065 56.7336 29.5396 56.6354 28.7872 56.4392C28.0676 56.2429 27.4951 56.0139 27.0698 55.7522L28.0512 52.072C28.4437 52.301 28.9181 52.4973 29.4742 52.6609C30.063 52.8244 30.7336 52.9062 31.486 52.9062C32.173 52.9062 32.8109 52.8081 33.3997 52.6118C34.0212 52.4155 34.6101 52.072 35.1662 51.5814C35.7223 51.0907 36.2457 50.4201 36.7364 49.5695C37.2598 48.719 37.7668 47.6558 38.2575 46.3801L39.3861 43.4359H37.0308L27.0698 21.0115L30.9953 19.245L40.5147 40.4918L47.9241 19.4413L51.9968 21.0115L42.6246 46.6254C41.905 48.5882 41.1362 50.2074 40.3184 51.4832C39.5333 52.7917 38.6828 53.8385 37.7668 54.6236C36.8509 55.4087 35.8531 55.9485 34.7736 56.2429C33.7268 56.57 32.5982 56.7336 31.3879 56.7336ZM60.7034 24.1028C61.6194 22.7289 62.7643 21.5839 64.1383 20.668C65.5449 19.7193 67.1642 19.245 68.9961 19.245C71.0242 19.245 72.6762 19.7357 73.952 20.7171C75.2278 21.6657 76.1438 22.9742 76.6999 24.6426C77.714 23.1378 78.908 21.862 80.2819 20.8152C81.6885 19.7684 83.4223 19.245 85.4832 19.245C86.8571 19.245 88.0511 19.474 89.0652 19.932C90.112 20.3899 90.9789 21.0442 91.6659 21.8947C92.3528 22.7125 92.8599 23.7103 93.187 24.8879C93.5468 26.0328 93.7268 27.3086 93.7268 28.7153V45.3496H89.3106V29.0588C89.3106 27.2923 88.9017 25.8693 88.0838 24.7898C87.266 23.6775 86.1374 23.1214 84.6981 23.1214C83.9457 23.1214 83.226 23.2686 82.5391 23.563C81.8521 23.8575 81.1978 24.2664 80.5763 24.7898C79.9548 25.2805 79.3659 25.8693 78.8098 26.5562C78.2537 27.2105 77.7467 27.8975 77.2887 28.6171V45.3496H72.8725V29.0588C72.8725 27.2923 72.4636 25.8693 71.6458 24.7898C70.828 23.6775 69.6994 23.1214 68.26 23.1214C67.5404 23.1214 66.837 23.2686 66.1501 23.563C65.4631 23.8248 64.7925 24.2009 64.1383 24.6916C63.5167 25.1823 62.9279 25.7548 62.3718 26.409C61.8157 27.0633 61.3086 27.7503 60.8506 28.4699V45.3496H56.4344V19.8338H60.7034V24.1028ZM100.304 19.8338C103.313 19.8338 105.194 21.0278 105.947 23.4158C106.176 23.056 106.519 22.6307 106.977 22.1401C107.468 21.6494 108.057 21.1914 108.744 20.7661C109.431 20.3409 110.216 19.981 111.099 19.6866C111.982 19.3922 112.964 19.245 114.043 19.245C115.515 19.245 116.922 19.5394 118.263 20.1282C119.637 20.7171 120.831 21.5676 121.845 22.6798C122.892 23.792 123.726 25.166 124.348 26.8016C124.969 28.4372 125.28 30.2855 125.28 32.3464C125.28 34.3745 124.969 36.2228 124.348 37.8911C123.759 39.5595 122.941 40.9988 121.894 42.2092C120.88 43.3869 119.702 44.3028 118.361 44.9571C117.02 45.6113 115.613 45.9384 114.141 45.9384C112.604 45.9384 111.181 45.644 109.872 45.0552C108.597 44.4337 107.533 43.7303 106.683 42.9452V56.1448H102.267V26.36C102.267 25.2477 101.989 24.4626 101.432 24.0047C100.909 23.514 100.222 23.2686 99.3716 23.2686L100.304 19.8338ZM120.766 32.4936C120.766 31.0215 120.553 29.713 120.128 28.5681C119.735 27.3904 119.179 26.3927 118.459 25.5749C117.772 24.7571 116.955 24.1355 116.006 23.7103C115.09 23.285 114.109 23.0724 113.062 23.0724C111.655 23.0724 110.379 23.4322 109.234 24.1519C108.122 24.8388 107.272 25.5912 106.683 26.409V38.9707C107.533 39.8539 108.498 40.5899 109.578 41.1788C110.69 41.7349 111.917 42.0129 113.258 42.0129C114.37 42.0129 115.384 41.7839 116.3 41.326C117.216 40.868 118.001 40.2301 118.656 39.4123C119.343 38.5618 119.866 37.564 120.226 36.4191C120.586 35.2414 120.766 33.9329 120.766 32.4936ZM133.439 12.7188H136.825V20.7661H143.891V24.5935H136.825V36.9098C136.825 37.8584 136.923 38.6599 137.119 39.3141C137.348 39.9684 137.643 40.4918 138.003 40.8843C138.362 41.2769 138.788 41.5713 139.278 41.7676C139.802 41.9311 140.341 42.0129 140.898 42.0129C141.715 42.0129 142.484 41.8821 143.204 41.6204C143.924 41.3587 144.61 41.0479 145.265 40.6881L146.491 44.221C145.837 44.6136 144.954 44.9898 143.842 45.3496C142.73 45.7422 141.568 45.9384 140.358 45.9384C137.904 45.9384 135.958 45.137 134.519 43.5341C133.112 41.9311 132.409 39.6086 132.409 36.5663V24.5935H127.993V20.7661H132.507L133.439 12.7188ZM168.912 32.5917C168.912 31.3159 168.7 30.1056 168.275 28.9606C167.882 27.8157 167.31 26.8179 166.557 25.9674C165.837 25.1169 164.971 24.4463 163.957 23.9556C162.975 23.4322 161.896 23.1705 160.718 23.1705C158.134 23.1705 156.122 24.021 154.683 25.7221C153.243 27.4231 152.523 29.6803 152.523 32.4936C152.523 33.7694 152.72 34.9961 153.112 36.1737C153.538 37.3187 154.11 38.3328 154.83 39.216C155.582 40.0665 156.449 40.7535 157.43 41.2769C158.444 41.7676 159.54 42.0129 160.718 42.0129C161.994 42.0129 163.139 41.7839 164.153 41.326C165.167 40.868 166.017 40.2301 166.704 39.4123C167.424 38.5618 167.964 37.564 168.324 36.4191C168.716 35.2741 168.912 33.9984 168.912 32.5917ZM148.009 32.5917C148.009 30.5308 148.336 28.6826 148.991 27.0469C149.645 25.3786 150.528 23.972 151.64 22.827C152.785 21.6821 154.126 20.7988 155.664 20.1773C157.234 19.5558 158.919 19.245 160.718 19.245C162.484 19.245 164.136 19.5558 165.674 20.1773C167.244 20.7988 168.602 21.6821 169.747 22.827C170.892 23.972 171.791 25.3622 172.445 26.9979C173.1 28.6335 173.427 30.4654 173.427 32.4936C173.427 34.5218 173.1 36.37 172.445 38.0384C171.824 39.674 170.941 41.0806 169.796 42.2583C168.651 43.4359 167.293 44.3519 165.723 45.0061C164.185 45.6277 162.517 45.9384 160.718 45.9384C158.886 45.9384 157.185 45.6113 155.615 44.9571C154.077 44.3028 152.736 43.3869 151.591 42.2092C150.479 41.0316 149.596 39.6249 148.941 37.9893C148.32 36.3537 148.009 34.5545 148.009 32.5917ZM183.567 24.1028C184.483 22.7289 185.628 21.5839 187.002 20.668C188.409 19.7193 190.028 19.245 191.86 19.245C193.888 19.245 195.54 19.7357 196.816 20.7171C198.092 21.6657 199.007 22.9742 199.564 24.6426C200.578 23.1378 201.772 21.862 203.146 20.8152C204.552 19.7684 206.286 19.245 208.347 19.245C209.721 19.245 210.915 19.474 211.929 19.932C212.976 20.3899 213.843 21.0442 214.53 21.8947C215.217 22.7125 215.724 23.7103 216.051 24.8879C216.411 26.0328 216.59 27.3086 216.59 28.7153V45.3496H212.174V29.0588C212.174 27.2923 211.765 25.8693 210.948 24.7898C210.13 23.6775 209.001 23.1214 207.562 23.1214C206.809 23.1214 206.09 23.2686 205.403 23.563C204.716 23.8575 204.062 24.2664 203.44 24.7898C202.819 25.2805 202.23 25.8693 201.674 26.5562C201.117 27.2105 200.61 27.8975 200.152 28.6171V45.3496H195.736V29.0588C195.736 27.2923 195.327 25.8693 194.51 24.7898C193.692 23.6775 192.563 23.1214 191.124 23.1214C190.404 23.1214 189.701 23.2686 189.014 23.563C188.327 23.8248 187.656 24.2009 187.002 24.6916C186.38 25.1823 185.792 25.7548 185.236 26.409C184.679 27.0633 184.172 27.7503 183.714 28.4699V45.3496H179.298V19.8338H183.567V24.1028ZM228.614 45.3496H224.198V19.8338H228.614V45.3496ZM226.406 15.4667C225.556 15.4667 224.82 15.1723 224.198 14.5835C223.609 13.9619 223.315 13.2259 223.315 12.3754C223.315 11.4267 223.593 10.6743 224.149 10.1182C224.705 9.56208 225.458 9.28402 226.406 9.28402C227.257 9.28402 227.976 9.59479 228.565 10.2163C229.187 10.8052 229.498 11.5248 229.498 12.3754C229.498 13.324 229.219 14.0764 228.663 14.6325C228.107 15.1886 227.355 15.4667 226.406 15.4667ZM234.552 19.8338H253.738V23.2196L239.704 41.4241H253.983V45.3496H234.257V41.8657L248.34 23.6612H234.552V19.8338ZM261.928 34.4073C262.222 36.7953 263.056 38.6599 264.43 40.0011C265.804 41.3423 267.62 42.0129 269.877 42.0129C271.349 42.0129 272.674 41.8657 273.852 41.5713C275.029 41.2442 276.158 40.8353 277.237 40.3446L278.268 44.1229C277.09 44.679 275.765 45.1206 274.293 45.4477C272.821 45.7749 271.169 45.9384 269.337 45.9384C267.505 45.9384 265.853 45.644 264.381 45.0552C262.909 44.4337 261.65 43.5668 260.603 42.4545C259.589 41.3096 258.804 39.9193 258.248 38.2837C257.692 36.6154 257.413 34.718 257.413 32.5917C257.413 30.6944 257.692 28.9279 258.248 27.2923C258.804 25.6567 259.589 24.25 260.603 23.0724C261.617 21.862 262.827 20.9297 264.234 20.2754C265.641 19.5885 267.211 19.245 268.945 19.245C270.777 19.245 272.379 19.5558 273.753 20.1773C275.127 20.7988 276.272 21.6494 277.188 22.7289C278.104 23.8084 278.791 25.0678 279.249 26.5072C279.707 27.9465 279.936 29.4677 279.936 31.0706C279.936 32.2155 279.887 33.3277 279.789 34.4073H261.928ZM268.846 23.0724C266.916 23.0724 265.33 23.7266 264.087 25.0351C262.876 26.3436 262.14 28.2737 261.879 30.8252H275.863C275.863 28.3391 275.242 26.4254 273.999 25.0842C272.756 23.743 271.038 23.0724 268.846 23.0724Z" fill="white"/>
<rect x="0.18161" y="61.14" width="279.637" height="1.10528" fill="white"/>
<path d="M44.2932 69.9419H50.328V71.1202H45.6582V74.1807H49.6814V75.3302H45.6582V78.8218H50.328V80H44.2932V69.9419ZM56.1716 73.7784C55.9896 73.7017 55.7741 73.6634 55.525 73.6634C55.2568 73.6634 54.9934 73.7209 54.7347 73.8358C54.4857 73.9508 54.2606 74.1232 54.0594 74.3531C53.8678 74.583 53.7098 74.88 53.5852 75.244C53.4703 75.5984 53.4128 76.0199 53.4128 76.5084V80H52.1196V72.5283H53.3697V74.1519C53.4559 73.9221 53.5709 73.6969 53.7145 73.4766C53.8582 73.2563 54.0259 73.0647 54.2174 72.9019C54.4186 72.739 54.6485 72.6097 54.9071 72.5139C55.1658 72.4086 55.4532 72.3559 55.7693 72.3559C55.9129 72.3559 56.0518 72.3654 56.186 72.3846C56.3296 72.3942 56.4542 72.4133 56.5595 72.4421L56.1716 73.7784ZM57.3933 78.3189C57.6423 78.5392 57.9536 78.7164 58.3272 78.8505C58.7104 78.9846 59.1175 79.0517 59.5486 79.0517C60.085 79.0517 60.4873 78.9655 60.7555 78.793C61.0333 78.611 61.1722 78.3811 61.1722 78.1033C61.1722 77.9596 61.1435 77.8255 61.086 77.701C61.0381 77.5765 60.9423 77.4567 60.7986 77.3418C60.6645 77.2268 60.4777 77.1167 60.2383 77.0113C59.9988 76.8964 59.6875 76.7718 59.3043 76.6377C58.5954 76.3983 58.0686 76.1157 57.7237 75.79C57.3789 75.4547 57.2065 74.9949 57.2065 74.4106C57.2065 74.1232 57.2687 73.855 57.3933 73.6059C57.5274 73.3569 57.7142 73.1414 57.9536 72.9593C58.2027 72.7678 58.4996 72.6193 58.8445 72.5139C59.1989 72.4086 59.6012 72.3559 60.0515 72.3559C60.54 72.3559 60.9663 72.4086 61.3303 72.5139C61.7039 72.6097 62.0391 72.7342 62.3361 72.8875L61.9769 73.9508C61.7182 73.7975 61.4213 73.673 61.086 73.5772C60.7603 73.4814 60.3963 73.4335 59.994 73.4335C59.4959 73.4335 59.1175 73.5341 58.8589 73.7353C58.6002 73.9364 58.4709 74.1567 58.4709 74.3962C58.4709 74.5112 58.4901 74.6165 58.5284 74.7123C58.5763 74.8081 58.6577 74.8991 58.7727 74.9853C58.8876 75.0715 59.0409 75.1578 59.2324 75.244C59.424 75.3302 59.6635 75.4212 59.9509 75.517C60.4203 75.6798 60.8178 75.8475 61.1435 76.0199C61.4692 76.1827 61.7326 76.3647 61.9338 76.5659C62.1349 76.767 62.2786 76.9874 62.3648 77.2268C62.451 77.4567 62.4941 77.7154 62.4941 78.0028C62.4941 78.338 62.4223 78.6398 62.2786 78.908C62.1349 79.1762 61.9338 79.4061 61.6751 79.5977C61.4165 79.7797 61.1004 79.9186 60.7268 80.0144C60.3628 80.1197 59.9557 80.1724 59.5055 80.1724C58.9307 80.1724 58.4182 80.1006 57.968 79.9569C57.5178 79.8132 57.1442 79.6264 56.8472 79.3965L57.3933 78.3189ZM64.8042 70.4448H65.7957V72.8013H67.8648V73.9221H65.7957V77.5286C65.7957 77.8064 65.8244 78.0411 65.8819 78.2327C65.9489 78.4242 66.0352 78.5775 66.1405 78.6925C66.2459 78.8074 66.3704 78.8936 66.5141 78.9511C66.6674 78.999 66.8254 79.0229 66.9883 79.0229C67.2278 79.0229 67.4529 78.9846 67.6636 78.908C67.8743 78.8313 68.0755 78.7403 68.2671 78.635L68.6263 79.6695C68.4347 79.7845 68.1761 79.8946 67.8504 80C67.5247 80.1149 67.1847 80.1724 66.8302 80.1724C66.1118 80.1724 65.5418 79.9377 65.1204 79.4684C64.7084 78.999 64.5025 78.3189 64.5025 77.428V73.9221H63.2093V72.8013H64.5312L64.8042 70.4448ZM70.4645 76.7958C70.5507 77.4951 70.795 78.0411 71.1973 78.4338C71.5996 78.8266 72.1313 79.0229 72.7922 79.0229C73.2233 79.0229 73.6112 78.9798 73.9561 78.8936C74.3009 78.7978 74.6314 78.6781 74.9475 78.5344L75.2493 79.6408C74.9044 79.8036 74.5165 79.9329 74.0854 80.0287C73.6543 80.1245 73.1706 80.1724 72.6342 80.1724C72.0977 80.1724 71.614 80.0862 71.1829 79.9138C70.7519 79.7318 70.3831 79.4779 70.0765 79.1522C69.7796 78.817 69.5497 78.4099 69.3868 77.9309C69.224 77.4424 69.1426 76.8868 69.1426 76.2641C69.1426 75.7086 69.224 75.1913 69.3868 74.7123C69.5497 74.2334 69.7796 73.8215 70.0765 73.4766C70.3735 73.1222 70.7279 72.8492 71.1398 72.6576C71.5517 72.4564 72.0115 72.3559 72.5192 72.3559C73.0556 72.3559 73.525 72.4469 73.9273 72.6289C74.3297 72.8109 74.6649 73.0599 74.9331 73.376C75.2014 73.6922 75.4025 74.0609 75.5366 74.4824C75.6707 74.9039 75.7378 75.3493 75.7378 75.8187C75.7378 76.154 75.7234 76.4797 75.6947 76.7958H70.4645ZM72.4905 73.4766C71.9253 73.4766 71.4607 73.6682 71.0967 74.0514C70.7423 74.4345 70.5268 74.9997 70.4501 75.7469H74.5452C74.5452 75.0189 74.3632 74.4585 73.9992 74.0657C73.6352 73.673 73.1323 73.4766 72.4905 73.4766ZM78.6826 77.5286C78.6826 78.0459 78.788 78.429 78.9987 78.6781C79.219 78.9271 79.5208 79.0517 79.9039 79.0517C80.0859 79.0517 80.2631 79.0325 80.4356 78.9942C80.608 78.9463 80.7613 78.8936 80.8954 78.8361L81.2115 79.8851C81.039 79.9617 80.8235 80.0287 80.5649 80.0862C80.3158 80.1437 80.038 80.1724 79.7315 80.1724C79.3962 80.1724 79.0849 80.1245 78.7975 80.0287C78.5197 79.9329 78.2755 79.7845 78.0647 79.5833C77.854 79.3821 77.6864 79.1235 77.5618 78.8074C77.4469 78.4913 77.3894 78.1081 77.3894 77.6579V69.3672H78.6826V77.5286ZM83.5096 77.5286C83.5096 78.0459 83.6149 78.429 83.8257 78.6781C84.046 78.9271 84.3477 79.0517 84.7309 79.0517C84.9129 79.0517 85.0901 79.0325 85.2625 78.9942C85.435 78.9463 85.5882 78.8936 85.7223 78.8361L86.0384 79.8851C85.866 79.9617 85.6505 80.0287 85.3919 80.0862C85.1428 80.1437 84.865 80.1724 84.5585 80.1724C84.2232 80.1724 83.9119 80.1245 83.6245 80.0287C83.3467 79.9329 83.1024 79.7845 82.8917 79.5833C82.681 79.3821 82.5133 79.1235 82.3888 78.8074C82.2739 78.4913 82.2164 78.1081 82.2164 77.6579V69.3672H83.5096V77.5286ZM87.8641 76.7958C87.9503 77.4951 88.1945 78.0411 88.5969 78.4338C88.9992 78.8266 89.5308 79.0229 90.1918 79.0229C90.6228 79.0229 91.0108 78.9798 91.3556 78.8936C91.7005 78.7978 92.031 78.6781 92.3471 78.5344L92.6488 79.6408C92.304 79.8036 91.916 79.9329 91.485 80.0287C91.0539 80.1245 90.5702 80.1724 90.0337 80.1724C89.4973 80.1724 89.0135 80.0862 88.5825 79.9138C88.1514 79.7318 87.7826 79.4779 87.4761 79.1522C87.1791 78.817 86.9492 78.4099 86.7864 77.9309C86.6236 77.4424 86.5421 76.8868 86.5421 76.2641C86.5421 75.7086 86.6236 75.1913 86.7864 74.7123C86.9492 74.2334 87.1791 73.8215 87.4761 73.4766C87.7731 73.1222 88.1275 72.8492 88.5394 72.6576C88.9513 72.4564 89.4111 72.3559 89.9188 72.3559C90.4552 72.3559 90.9246 72.4469 91.3269 72.6289C91.7292 72.8109 92.0645 73.0599 92.3327 73.376C92.6009 73.6922 92.8021 74.0609 92.9362 74.4824C93.0703 74.9039 93.1374 75.3493 93.1374 75.8187C93.1374 76.154 93.123 76.4797 93.0943 76.7958H87.8641ZM89.89 73.4766C89.3249 73.4766 88.8603 73.6682 88.4963 74.0514C88.1418 74.4345 87.9263 74.9997 87.8497 75.7469H91.9448C91.9448 75.0189 91.7628 74.4585 91.3987 74.0657C91.0347 73.673 90.5318 73.4766 89.89 73.4766ZM99.9876 76.7958C100.074 77.4951 100.318 78.0411 100.72 78.4338C101.123 78.8266 101.654 79.0229 102.315 79.0229C102.746 79.0229 103.134 78.9798 103.479 78.8936C103.824 78.7978 104.155 78.6781 104.471 78.5344L104.772 79.6408C104.428 79.8036 104.04 79.9329 103.609 80.0287C103.177 80.1245 102.694 80.1724 102.157 80.1724C101.621 80.1724 101.137 80.0862 100.706 79.9138C100.275 79.7318 99.9062 79.4779 99.5997 79.1522C99.3027 78.817 99.0728 78.4099 98.91 77.9309C98.7471 77.4424 98.6657 76.8868 98.6657 76.2641C98.6657 75.7086 98.7471 75.1913 98.91 74.7123C99.0728 74.2334 99.3027 73.8215 99.5997 73.4766C99.8966 73.1222 100.251 72.8492 100.663 72.6576C101.075 72.4564 101.535 72.3559 102.042 72.3559C102.579 72.3559 103.048 72.4469 103.45 72.6289C103.853 72.8109 104.188 73.0599 104.456 73.376C104.724 73.6922 104.926 74.0609 105.06 74.4824C105.194 74.9039 105.261 75.3493 105.261 75.8187C105.261 76.154 105.247 76.4797 105.218 76.7958H99.9876ZM102.014 73.4766C101.448 73.4766 100.984 73.6682 100.62 74.0514C100.265 74.4345 100.05 74.9997 99.9733 75.7469H104.068C104.068 75.0189 103.886 74.4585 103.522 74.0657C103.158 73.673 102.655 73.4766 102.014 73.4766ZM108.278 80H106.984V72.5283H108.278V80ZM107.631 71.2495C107.382 71.2495 107.166 71.1633 106.984 70.9908C106.812 70.8088 106.726 70.5933 106.726 70.3443C106.726 70.0665 106.807 69.8461 106.97 69.6833C107.133 69.5204 107.353 69.439 107.631 69.439C107.88 69.439 108.091 69.53 108.263 69.712C108.445 69.8845 108.536 70.0952 108.536 70.3443C108.536 70.622 108.455 70.8424 108.292 71.0052C108.129 71.1681 107.909 71.2495 107.631 71.2495ZM111.827 73.7784C112.095 73.376 112.435 73.0408 112.847 72.7726C113.268 72.4948 113.766 72.3559 114.341 72.3559C115.184 72.3559 115.812 72.6097 116.223 73.1174C116.645 73.6251 116.856 74.2956 116.856 75.129V80H115.562V75.2727C115.562 74.7267 115.438 74.2956 115.189 73.9795C114.94 73.6538 114.585 73.491 114.126 73.491C113.905 73.491 113.69 73.5341 113.479 73.6203C113.268 73.6969 113.062 73.8071 112.861 73.9508C112.67 74.0945 112.488 74.2621 112.315 74.4537C112.152 74.6453 112.004 74.8464 111.87 75.0572V80H110.577V72.5283H111.827V73.7784ZM123.359 78.0028C123.704 78.2901 124.092 78.5248 124.523 78.7068C124.954 78.8888 125.457 78.9798 126.032 78.9798C126.721 78.9798 127.267 78.8361 127.67 78.5488C128.072 78.2614 128.273 77.8734 128.273 77.3849C128.273 77.1837 128.244 76.9969 128.187 76.8245C128.129 76.6521 128.014 76.4893 127.842 76.336C127.679 76.1731 127.444 76.0151 127.138 75.8618C126.841 75.699 126.453 75.5266 125.974 75.3445C125.457 75.1434 125.016 74.947 124.652 74.7554C124.298 74.5543 124.01 74.3387 123.79 74.1088C123.57 73.8694 123.412 73.6107 123.316 73.3329C123.22 73.0456 123.172 72.7199 123.172 72.3559C123.172 72.0014 123.244 71.6662 123.388 71.3501C123.541 71.0339 123.761 70.7609 124.049 70.531C124.346 70.2916 124.705 70.1048 125.126 69.9707C125.557 69.8366 126.046 69.7695 126.592 69.7695C127.186 69.7695 127.717 69.8318 128.187 69.9563C128.656 70.0712 129.121 70.2389 129.581 70.4592L129.078 71.6231C128.752 71.4315 128.369 71.2734 127.928 71.1489C127.497 71.0148 127.042 70.9477 126.563 70.9477C125.931 70.9477 125.433 71.0723 125.069 71.3213C124.705 71.5608 124.523 71.8817 124.523 72.284C124.523 72.4756 124.547 72.648 124.595 72.8013C124.652 72.945 124.757 73.0887 124.911 73.2324C125.074 73.3665 125.294 73.5054 125.572 73.649C125.859 73.7927 126.237 73.9508 126.707 74.1232C127.262 74.334 127.732 74.5495 128.115 74.7698C128.498 74.9901 128.805 75.2248 129.035 75.4739C129.264 75.7229 129.427 75.9911 129.523 76.2785C129.628 76.5659 129.681 76.882 129.681 77.2268C129.681 77.6962 129.59 78.1129 129.408 78.4769C129.226 78.8409 128.972 79.1522 128.647 79.4109C128.331 79.6599 127.947 79.8515 127.497 79.9856C127.047 80.1102 126.558 80.1724 126.032 80.1724C125.332 80.1724 124.695 80.0814 124.12 79.8994C123.546 79.7078 123.062 79.4588 122.669 79.1522L123.359 78.0028ZM131.376 83.3335C131.089 83.3335 130.835 83.3048 130.615 83.2473C130.404 83.1898 130.236 83.1228 130.112 83.0462L130.399 81.9685C130.514 82.0356 130.653 82.093 130.816 82.1409C130.988 82.1888 131.185 82.2128 131.405 82.2128C131.606 82.2128 131.793 82.184 131.965 82.1266C132.147 82.0691 132.32 81.9685 132.483 81.8248C132.645 81.6811 132.799 81.4848 132.942 81.2357C133.096 80.9866 133.244 80.6753 133.388 80.3017L133.718 79.4396H133.029L130.112 72.8731L131.261 72.3559L134.049 78.5775L136.218 72.4133L137.411 72.8731L134.667 80.3736C134.456 80.9483 134.231 81.4225 133.991 81.7961C133.761 82.1792 133.512 82.4858 133.244 82.7157C132.976 82.9456 132.684 83.1036 132.368 83.1898C132.061 83.2856 131.731 83.3335 131.376 83.3335ZM139.961 73.7784C140.229 73.376 140.564 73.0408 140.966 72.7726C141.378 72.4948 141.852 72.3559 142.389 72.3559C142.983 72.3559 143.467 72.4996 143.84 72.7869C144.214 73.0647 144.482 73.4479 144.645 73.9364C144.942 73.4958 145.291 73.1222 145.694 72.8157C146.106 72.5091 146.613 72.3559 147.217 72.3559C147.619 72.3559 147.969 72.4229 148.266 72.557C148.572 72.6911 148.826 72.8827 149.027 73.1318C149.228 73.3713 149.377 73.6634 149.473 74.0083C149.578 74.3435 149.631 74.7171 149.631 75.129V80H148.338V75.2296C148.338 74.7123 148.218 74.2956 147.978 73.9795C147.739 73.6538 147.408 73.491 146.987 73.491C146.767 73.491 146.556 73.5341 146.355 73.6203C146.154 73.7065 145.962 73.8263 145.78 73.9795C145.598 74.1232 145.425 74.2956 145.263 74.4968C145.1 74.6884 144.951 74.8895 144.817 75.1003V80H143.524V75.2296C143.524 74.7123 143.404 74.2956 143.165 73.9795C142.925 73.6538 142.595 73.491 142.173 73.491C141.963 73.491 141.757 73.5341 141.556 73.6203C141.354 73.6969 141.158 73.8071 140.966 73.9508C140.784 74.0945 140.612 74.2621 140.449 74.4537C140.286 74.6453 140.138 74.8464 140.004 75.0572V80H138.711V72.5283H139.961V73.7784ZM151.557 72.5283C152.438 72.5283 152.989 72.8779 153.209 73.5772C153.276 73.4718 153.377 73.3473 153.511 73.2036C153.655 73.0599 153.827 72.9258 154.028 72.8013C154.229 72.6768 154.459 72.5714 154.718 72.4852C154.976 72.399 155.264 72.3559 155.58 72.3559C156.011 72.3559 156.423 72.4421 156.816 72.6145C157.218 72.7869 157.568 73.036 157.865 73.3617C158.171 73.6874 158.415 74.0897 158.597 74.5686C158.779 75.0476 158.87 75.5888 158.87 76.1923C158.87 76.7862 158.779 77.3274 158.597 77.816C158.425 78.3045 158.185 78.726 157.879 79.0804C157.582 79.4253 157.237 79.6935 156.844 79.8851C156.452 80.0766 156.04 80.1724 155.609 80.1724C155.158 80.1724 154.742 80.0862 154.359 79.9138C153.985 79.7318 153.674 79.5258 153.425 79.2959V83.1611H152.131V74.4393C152.131 74.1136 152.05 73.8837 151.887 73.7496C151.734 73.6059 151.533 73.5341 151.284 73.5341L151.557 72.5283ZM157.548 76.2354C157.548 75.8043 157.486 75.4212 157.362 75.0859C157.247 74.7411 157.084 74.4489 156.873 74.2094C156.672 73.9699 156.432 73.7879 156.155 73.6634C155.886 73.5389 155.599 73.4766 155.293 73.4766C154.881 73.4766 154.507 73.582 154.172 73.7927C153.846 73.9939 153.597 74.2142 153.425 74.4537V78.1321C153.674 78.3907 153.956 78.6062 154.272 78.7787C154.598 78.9415 154.957 79.0229 155.35 79.0229C155.676 79.0229 155.973 78.9559 156.241 78.8218C156.509 78.6877 156.739 78.5009 156.931 78.2614C157.132 78.0123 157.285 77.7202 157.39 77.3849C157.496 77.0401 157.548 76.6569 157.548 76.2354ZM161.26 70.4448H162.251V72.8013H164.32V73.9221H162.251V77.5286C162.251 77.8064 162.28 78.0411 162.337 78.2327C162.404 78.4242 162.49 78.5775 162.596 78.6925C162.701 78.8074 162.826 78.8936 162.969 78.9511C163.123 78.999 163.281 79.0229 163.444 79.0229C163.683 79.0229 163.908 78.9846 164.119 78.908C164.33 78.8313 164.531 78.7403 164.722 78.635L165.082 79.6695C164.89 79.7845 164.631 79.8946 164.306 80C163.98 80.1149 163.64 80.1724 163.286 80.1724C162.567 80.1724 161.997 79.9377 161.576 79.4684C161.164 78.999 160.958 78.3189 160.958 77.428V73.9221H159.665V72.8013H160.987L161.26 70.4448ZM171.647 76.2641C171.647 75.8906 171.585 75.5361 171.46 75.2009C171.345 74.8656 171.178 74.5734 170.957 74.3244C170.747 74.0753 170.493 73.8789 170.196 73.7353C169.909 73.582 169.592 73.5054 169.248 73.5054C168.491 73.5054 167.902 73.7544 167.48 74.2525C167.059 74.7506 166.848 75.4116 166.848 76.2354C166.848 76.609 166.905 76.9682 167.02 77.3131C167.145 77.6483 167.313 77.9453 167.523 78.2039C167.744 78.453 167.997 78.6541 168.285 78.8074C168.582 78.9511 168.903 79.0229 169.248 79.0229C169.621 79.0229 169.956 78.9559 170.253 78.8218C170.55 78.6877 170.799 78.5009 171.001 78.2614C171.211 78.0123 171.369 77.7202 171.475 77.3849C171.59 77.0496 171.647 76.676 171.647 76.2641ZM165.526 76.2641C165.526 75.6607 165.622 75.1194 165.813 74.6405C166.005 74.1519 166.264 73.74 166.589 73.4048C166.925 73.0695 167.317 72.8109 167.768 72.6289C168.227 72.4469 168.721 72.3559 169.248 72.3559C169.765 72.3559 170.249 72.4469 170.699 72.6289C171.159 72.8109 171.556 73.0695 171.891 73.4048C172.227 73.74 172.49 74.1472 172.682 74.6261C172.873 75.1051 172.969 75.6415 172.969 76.2354C172.969 76.8293 172.873 77.3705 172.682 77.8591C172.5 78.338 172.241 78.7499 171.906 79.0948C171.57 79.4396 171.173 79.7078 170.713 79.8994C170.263 80.0814 169.774 80.1724 169.248 80.1724C168.711 80.1724 168.213 80.0766 167.753 79.8851C167.303 79.6935 166.91 79.4253 166.575 79.0804C166.249 78.7356 165.991 78.3237 165.799 77.8447C165.617 77.3657 165.526 76.8389 165.526 76.2641ZM175.938 73.7784C176.207 73.376 176.542 73.0408 176.944 72.7726C177.356 72.4948 177.83 72.3559 178.367 72.3559C178.961 72.3559 179.444 72.4996 179.818 72.7869C180.192 73.0647 180.46 73.4479 180.623 73.9364C180.92 73.4958 181.269 73.1222 181.672 72.8157C182.083 72.5091 182.591 72.3559 183.195 72.3559C183.597 72.3559 183.947 72.4229 184.244 72.557C184.55 72.6911 184.804 72.8827 185.005 73.1318C185.206 73.3713 185.355 73.6634 185.45 74.0083C185.556 74.3435 185.609 74.7171 185.609 75.129V80H184.315V75.2296C184.315 74.7123 184.196 74.2956 183.956 73.9795C183.717 73.6538 183.386 73.491 182.965 73.491C182.744 73.491 182.534 73.5341 182.332 73.6203C182.131 73.7065 181.94 73.8263 181.758 73.9795C181.576 74.1232 181.403 74.2956 181.24 74.4968C181.078 74.6884 180.929 74.8895 180.795 75.1003V80H179.502V75.2296C179.502 74.7123 179.382 74.2956 179.143 73.9795C178.903 73.6538 178.573 73.491 178.151 73.491C177.94 73.491 177.735 73.5341 177.533 73.6203C177.332 73.6969 177.136 73.8071 176.944 73.9508C176.762 74.0945 176.59 74.2621 176.427 74.4537C176.264 74.6453 176.116 74.8464 175.982 75.0572V80H174.688V72.5283H175.938V73.7784ZM188.555 75.6607V74.4824H193.44V75.6607H188.555ZM196.596 69.9707C196.998 69.9228 197.429 69.8892 197.889 69.8701C198.358 69.8413 198.851 69.827 199.369 69.827C199.991 69.827 200.547 69.9036 201.035 70.0569C201.524 70.2101 201.936 70.4209 202.271 70.6891C202.606 70.9573 202.86 71.283 203.033 71.6662C203.205 72.0398 203.291 72.4469 203.291 72.8875C203.291 73.4239 203.186 73.9029 202.975 74.3244C202.774 74.7363 202.487 75.0859 202.113 75.3733C201.749 75.6607 201.308 75.881 200.791 76.0342C200.274 76.1779 199.704 76.2498 199.081 76.2498C198.679 76.2498 198.305 76.2354 197.961 76.2067V80H196.596V69.9707ZM199.254 75.1147C200.116 75.1147 200.777 74.9279 201.237 74.5543C201.706 74.1711 201.941 73.6538 201.941 73.0025C201.941 72.3798 201.716 71.8865 201.265 71.5225C200.825 71.1585 200.183 70.9765 199.34 70.9765C199.081 70.9765 198.837 70.9813 198.607 70.9908C198.377 71.0004 198.162 71.0148 197.961 71.0339V75.0428C198.114 75.062 198.296 75.0811 198.507 75.1003C198.727 75.1099 198.976 75.1147 199.254 75.1147ZM208.853 73.7784C208.671 73.7017 208.455 73.6634 208.206 73.6634C207.938 73.6634 207.675 73.7209 207.416 73.8358C207.167 73.9508 206.942 74.1232 206.741 74.3531C206.549 74.583 206.391 74.88 206.266 75.244C206.151 75.5984 206.094 76.0199 206.094 76.5084V80H204.801V72.5283H206.051V74.1519C206.137 73.9221 206.252 73.6969 206.396 73.4766C206.539 73.2563 206.707 73.0647 206.899 72.9019C207.1 72.739 207.33 72.6097 207.588 72.5139C207.847 72.4086 208.134 72.3559 208.45 72.3559C208.594 72.3559 208.733 72.3654 208.867 72.3846C209.011 72.3942 209.135 72.4133 209.241 72.4421L208.853 73.7784ZM215.651 76.2641C215.651 75.8906 215.589 75.5361 215.464 75.2009C215.349 74.8656 215.182 74.5734 214.961 74.3244C214.751 74.0753 214.497 73.8789 214.2 73.7353C213.913 73.582 213.596 73.5054 213.252 73.5054C212.495 73.5054 211.906 73.7544 211.484 74.2525C211.063 74.7506 210.852 75.4116 210.852 76.2354C210.852 76.609 210.91 76.9682 211.024 77.3131C211.149 77.6483 211.317 77.9453 211.527 78.2039C211.748 78.453 212.002 78.6541 212.289 78.8074C212.586 78.9511 212.907 79.0229 213.252 79.0229C213.625 79.0229 213.96 78.9559 214.257 78.8218C214.554 78.6877 214.803 78.5009 215.005 78.2614C215.215 78.0123 215.373 77.7202 215.479 77.3849C215.594 77.0496 215.651 76.676 215.651 76.2641ZM209.53 76.2641C209.53 75.6607 209.626 75.1194 209.818 74.6405C210.009 74.1519 210.268 73.74 210.593 73.4048C210.929 73.0695 211.321 72.8109 211.772 72.6289C212.231 72.4469 212.725 72.3559 213.252 72.3559C213.769 72.3559 214.253 72.4469 214.703 72.6289C215.163 72.8109 215.56 73.0695 215.895 73.4048C216.231 73.74 216.494 74.1472 216.686 74.6261C216.877 75.1051 216.973 75.6415 216.973 76.2354C216.973 76.8293 216.877 77.3705 216.686 77.8591C216.504 78.338 216.245 78.7499 215.91 79.0948C215.575 79.4396 215.177 79.7078 214.717 79.8994C214.267 80.0814 213.778 80.1724 213.252 80.1724C212.715 80.1724 212.217 80.0766 211.757 79.8851C211.307 79.6935 210.914 79.4253 210.579 79.0804C210.253 78.7356 209.995 78.3237 209.803 77.8447C209.621 77.3657 209.53 76.8389 209.53 76.2641ZM222.874 70.7609C222.673 70.6556 222.457 70.5598 222.227 70.4736C221.997 70.3874 221.743 70.3443 221.466 70.3443C221.063 70.3443 220.738 70.4736 220.488 70.7322C220.249 70.9813 220.129 71.3501 220.129 71.8386V72.8013H222.342V73.9221H220.129V80H218.836V73.9221H217.687V72.8013H218.836V71.9248C218.836 71.5033 218.898 71.1249 219.023 70.7897C219.147 70.4544 219.32 70.167 219.54 69.9276C219.76 69.6881 220.029 69.5061 220.345 69.3815C220.661 69.257 221.006 69.1948 221.379 69.1948C221.782 69.1948 222.127 69.2427 222.414 69.3384C222.711 69.4247 222.993 69.5348 223.262 69.6689L222.874 70.7609ZM224.981 80H223.688V72.5283H224.981V80ZM224.334 71.2495C224.085 71.2495 223.87 71.1633 223.688 70.9908C223.515 70.8088 223.429 70.5933 223.429 70.3443C223.429 70.0665 223.511 69.8461 223.673 69.6833C223.836 69.5204 224.057 69.439 224.334 69.439C224.583 69.439 224.794 69.53 224.967 69.712C225.149 69.8845 225.24 70.0952 225.24 70.3443C225.24 70.622 225.158 70.8424 224.995 71.0052C224.832 71.1681 224.612 71.2495 224.334 71.2495ZM228.501 77.5286C228.501 78.0459 228.607 78.429 228.817 78.6781C229.038 78.9271 229.339 79.0517 229.723 79.0517C229.905 79.0517 230.082 79.0325 230.254 78.9942C230.427 78.9463 230.58 78.8936 230.714 78.8361L231.03 79.8851C230.858 79.9617 230.642 80.0287 230.384 80.0862C230.135 80.1437 229.857 80.1724 229.55 80.1724C229.215 80.1724 228.904 80.1245 228.616 80.0287C228.338 79.9329 228.094 79.7845 227.883 79.5833C227.673 79.3821 227.505 79.1235 227.381 78.8074C227.266 78.4913 227.208 78.1081 227.208 77.6579V69.3672H228.501V77.5286Z" fill="#B7B7B7"/>
</svg>
